<svg width="1297" height="1123" viewBox="0 0 1297 1123" fill="none" xmlns="http://www.w3.org/2000/svg">
<path d="M976 625H690V626H976V625Z" fill="#020202"/>
<path d="M544 625H421V626H544V625Z" fill="#020202"/>
<path d="M976 665H609V666H976V665Z" fill="#020202"/>
<path d="M541 665H421V666H541V665Z" fill="#020202"/>
<path d="M757.281 283.781C758.193 288.632 760.109 293.185 762.879 297.089C764.303 298.922 766.298 300.102 768.473 300.396C770.65 300.553 772.825 300.053 774.763 298.95C778.705 296.648 782.244 293.595 785.217 289.931C788.294 286.343 791.119 282.502 793.667 278.442C793.756 278.302 793.874 278.189 794.012 278.112C794.149 278.035 794.302 277.997 794.457 278L835.026 279.162L835.162 279.175L835.181 279.178C841.08 280.209 846.743 282.487 851.857 285.886C856.941 289.294 861.468 293.619 865.25 298.68C868.971 303.721 872.201 309.178 874.887 314.961C877.497 320.744 879.743 326.717 881.612 332.838C885.181 345.085 887.659 357.685 889.011 370.46C890.46 383.178 891.118 395.989 890.983 408.805C890.889 421.602 890.13 434.383 888.707 447.084C887.345 459.792 885.147 472.374 882.132 484.732C879.248 497.161 874.821 509.093 868.977 520.192C865.969 525.708 862.324 530.772 858.136 535.259C853.981 539.931 848.764 543.29 843.029 544.985C842.928 545.01 842.822 545.003 842.724 544.966C842.626 544.928 842.54 544.862 842.474 544.773C842.409 544.685 842.367 544.578 842.353 544.465C842.339 544.352 842.355 544.237 842.397 544.132L842.422 544.072C843.684 540.776 844.61 537.336 845.181 533.814C845.803 530.28 846.255 526.713 846.534 523.127L846.535 523.254C846.433 520.516 845.361 517.931 843.549 516.052C842.534 515.293 841.39 514.767 840.186 514.505C838.982 514.244 837.743 514.253 836.542 514.532C834.004 514.965 831.529 515.77 829.183 516.923C826.804 518.042 824.507 519.363 822.313 520.873C822.121 521.006 821.889 521.049 821.668 520.993C821.447 520.937 821.255 520.787 821.134 520.576C821.071 520.461 821.029 520.333 821.013 520.2C820.997 520.067 821.006 519.932 821.041 519.803C822.687 513.178 823.67 506.375 823.973 499.515C824.349 492.637 824.362 485.742 824.013 478.863L825.51 479.953C824.361 480.293 823.185 480.501 821.998 480.575C820.88 480.69 819.781 480.735 818.678 480.795C816.477 480.886 814.284 480.924 812.094 480.94C807.714 480.967 803.344 480.902 798.975 480.808C790.238 480.618 781.51 480.299 772.785 479.933C755.333 479.217 737.906 478.147 720.471 477.049C720.162 477.03 719.865 476.909 719.619 476.703C719.373 476.497 719.188 476.214 719.089 475.891L718.869 475.172L717.24 469.852L715.376 463.992L711.566 452.282L703.831 428.894L707.333 428.848C703.753 440.398 699.98 451.839 695.912 463.201C693.852 468.874 691.733 474.52 689.28 480.083C688.072 482.98 686.585 485.726 684.844 488.273C682.962 491.097 680.275 493.146 677.212 494.094C674.016 494.788 670.7 494.06 667.99 492.07C665.503 490.305 663.293 488.105 661.447 485.559C660.504 484.353 659.7 483.056 658.842 481.797C658.08 480.481 657.258 479.197 656.553 477.851C655.877 476.471 655.096 475.226 654.508 473.735C653.876 472.278 653.318 470.782 652.839 469.256C651.186 463.185 650.64 456.815 651.231 450.511C651.729 444.342 652.747 438.237 654.273 432.276C655.764 426.349 657.598 420.533 659.763 414.863C660.826 412.019 661.99 409.239 663.281 406.461C664.459 403.792 665.468 401.037 666.303 398.216C669.921 386.779 673.22 375.152 676.709 363.611C678.444 357.834 680.217 352.068 682.072 346.328C682.995 343.457 683.962 340.601 684.972 337.759C685.94 334.87 687.125 332.074 688.512 329.401C691.374 324.089 695.184 319.471 699.711 315.825C704.164 312.143 709.141 309.301 714.439 307.414L714.538 307.784C709.354 309.807 704.509 312.761 700.202 316.528C695.875 320.214 692.272 324.826 689.608 330.087C688.322 332.735 687.237 335.495 686.364 338.339C685.436 341.191 684.533 344.055 683.656 346.932C681.907 352.687 680.237 358.476 678.604 364.28C675.316 375.886 672.229 387.545 668.779 399.152C667.938 402.125 666.906 405.029 665.692 407.842C664.497 410.491 663.373 413.252 662.366 416.044C660.307 421.614 658.574 427.323 657.178 433.137C655.765 438.903 654.843 444.803 654.423 450.758C653.927 456.595 654.483 462.483 656.059 468.083C656.499 469.421 657.004 470.732 657.571 472.01C658.085 473.308 658.893 474.579 659.539 475.865C660.23 477.14 661.003 478.344 661.726 479.59C662.528 480.755 663.286 481.978 664.149 483.071C665.753 485.283 667.671 487.196 669.828 488.736C671.745 490.184 674.104 490.738 676.39 490.276C678.674 489.517 680.665 487.943 682.049 485.803C683.616 483.476 684.955 480.974 686.043 478.337C688.403 472.952 690.496 467.347 692.521 461.724C696.537 450.453 700.254 439.007 703.816 427.543L703.822 427.523C703.947 427.123 704.181 426.775 704.493 426.528C704.804 426.281 705.178 426.147 705.562 426.144C705.946 426.141 706.322 426.27 706.636 426.513C706.951 426.755 707.189 427.1 707.318 427.498L714.923 450.961L718.671 462.721L720.51 468.625L721.409 471.6L721.845 473.122L722.063 473.907C722.158 474.324 722.233 474.746 722.287 475.172L720.686 473.294C738.086 474.559 755.507 475.611 772.92 476.647C781.628 477.149 790.337 477.602 799.045 477.926C803.398 478.088 807.751 478.22 812.097 478.26C814.27 478.278 816.44 478.274 818.6 478.218C819.676 478.176 820.757 478.148 821.814 478.056C822.806 478.006 823.793 477.86 824.762 477.618L824.885 477.583C825.026 477.544 825.172 477.536 825.315 477.559C825.459 477.582 825.596 477.635 825.721 477.717C825.845 477.799 825.954 477.906 826.041 478.034C826.127 478.162 826.19 478.308 826.226 478.462C826.244 478.543 826.255 478.626 826.259 478.709C826.526 485.696 826.423 492.694 825.951 499.668C825.55 506.678 824.449 513.618 822.667 520.363L821.395 519.293C823.69 517.762 826.09 516.431 828.574 515.311C831.062 514.139 833.681 513.338 836.362 512.929C837.753 512.643 839.181 512.67 840.562 513.009C841.942 513.347 843.246 513.989 844.395 514.897C846.457 517.043 847.681 519.986 847.81 523.107C847.814 523.149 847.814 523.192 847.811 523.235C847.511 526.875 847.035 530.495 846.385 534.079C845.778 537.7 844.805 541.235 843.484 544.619L842.877 543.706C845.626 543.017 848.247 541.814 850.626 540.149C853.052 538.486 855.321 536.559 857.397 534.397C861.53 530 865.097 525.001 867.997 519.539C873.707 508.507 878.007 496.66 880.774 484.333C883.559 472.004 885.529 459.47 886.668 446.828C887.869 434.199 888.414 421.504 888.302 408.806C888.063 383.479 885.648 357.966 878.689 333.898C876.907 327.921 874.756 322.085 872.252 316.431C869.7 310.841 866.624 305.56 863.074 300.675C859.52 295.844 855.253 291.706 850.451 288.435C845.642 285.212 840.328 283.008 834.783 281.935L834.938 281.951L794.394 280.015L795.182 279.574C792.528 283.69 789.563 287.553 786.32 291.122C783.139 294.816 779.386 297.856 775.237 300.101C773.095 301.227 770.715 301.687 768.353 301.432C765.984 301.038 763.834 299.686 762.322 297.64C759.585 293.57 757.743 288.857 756.94 283.871L757.281 283.781Z" fill="black"/>
<path d="M665 406.871L689.745 376.931L690.515 376L690.9 377.228C693.402 385.326 696.417 393.219 699.921 400.851C701.65 404.629 703.634 408.259 705.857 411.709C707.825 415.087 710.545 417.851 713.759 419.735L716 420.793L714.179 422.62L706.821 430L704.52 427.096L712.122 420.025L712.542 422.91C710.607 421.87 708.869 420.433 707.421 418.676C706.032 417.044 704.773 415.283 703.659 413.412C701.483 409.756 699.559 405.924 697.904 401.949C694.62 394.084 691.841 385.973 689.588 377.678L690.743 377.974L665 406.871Z" fill="black"/>
<path d="M823 479.026L852 362L826.406 480L823 479.026Z" fill="black"/>
<path d="M771 301C768.439 315.739 765.818 330.448 763.14 345.128C761.863 352.481 760.496 359.813 759.338 367.173C758.024 374.43 757.078 381.763 756.504 389.136C756.431 392.792 756.598 396.45 757.005 400.08C757.339 403.78 757.777 407.482 758.181 411.19C759.002 418.609 759.995 426.013 760.891 433.436C762.808 448.263 764.642 463.118 766.394 478C763.311 463.381 760.578 448.684 758.195 433.908C756.975 426.525 755.917 419.111 754.898 411.679C754.417 407.956 753.986 404.22 753.605 400.472C753.151 396.666 752.952 392.829 753.01 388.992C753.627 381.432 754.656 373.92 756.092 366.496C757.445 359.125 758.887 351.789 760.482 344.492C763.6 329.883 767.107 315.385 771 301Z" fill="black"/>
<path d="M825 493.873C829.409 490.69 834.455 488.715 839.71 488.115C842.392 487.822 845.102 488.09 847.692 488.906C850.301 489.761 852.714 491.215 854.767 493.171C856.784 495.128 858.471 497.458 859.749 500.054C861.034 502.591 862.049 505.281 862.777 508.07C864.182 513.585 864.929 519.275 865 525C864.268 519.407 863.096 513.894 861.497 508.521C860.66 505.895 859.594 503.362 858.315 500.959C857.095 498.563 855.506 496.415 853.618 494.61C849.785 491.028 844.825 489.222 839.793 489.576C837.241 489.697 834.711 490.149 832.257 490.921C829.759 491.656 827.33 492.644 825 493.873V493.873Z" fill="black"/>
<path d="M659 682C658.687 682.353 658.353 682.687 658 683C658.27 682.609 658.609 682.27 659 682V682Z" fill="white"/>
<path d="M730 217C730.307 215.567 731.12 214.307 732.278 213.468C733.385 212.59 734.646 211.946 735.991 211.57C736.65 211.387 737.319 211.241 737.993 211.132C738.67 211.079 739.341 210.991 740.015 211.001C741.362 210.996 742.703 211.187 744 211.567C742.685 211.946 741.411 212.176 740.152 212.434C738.902 212.725 737.664 212.964 736.477 213.345C735.286 213.667 734.129 214.113 733.023 214.676C731.875 215.231 730.847 216.021 730 217V217Z" fill="black"/>
<path d="M759 270.469C761.301 270.522 763.598 270.22 765.829 269.571C768.102 268.951 770.216 267.727 772 266C770.331 267.948 768.286 269.422 766.029 270.301C763.764 271.229 761.4 271.801 759 272V270.469Z" fill="black"/>
<path d="M752 209C753.08 207.892 754.336 206.98 755.714 206.303C757.072 205.601 758.502 205.051 759.976 204.665C762.925 203.858 766.018 203.784 769 204.451C767.52 204.871 766.08 205.138 764.657 205.474C763.232 205.787 761.827 206.13 760.43 206.495C759.025 206.834 757.645 207.262 756.245 207.667L752 209Z" fill="black"/>
<path d="M834.941 280.824C834.941 280.824 796.273 298.8 776.205 284.431C776.205 284.431 779.69 264.337 789.991 252.486C789.991 252.486 792.333 237.544 786.714 227.24C786.714 227.24 797.483 227.755 797.483 209.721C797.483 191.688 786.245 200.447 785.309 204.054C785.309 204.054 747.565 223.118 739.045 179.279C739.631 185.849 739.163 200.147 729.59 223.118C729.59 223.118 740.359 272.065 760.493 270.519C760.493 270.519 764.239 285.977 752.065 284.946C751.584 284.903 751.102 284.889 750.634 284.875L750.504 275.672L717 276.631C717.459 265.404 718.694 254.232 720.694 243.212C725.844 217.45 713.67 205.599 718.821 193.749C723.971 181.899 725.376 167.987 748.319 166.956C771.262 165.926 782.968 160.774 797.483 191.688C797.483 191.688 805.443 229.816 816.681 231.876C827.918 233.938 839.623 262.791 834.941 280.824Z" fill="#6A45A5"/>
<path d="M738.5 226C738.903 225.982 739.284 225.763 739.564 225.39C739.844 225.017 740 224.519 740 224C740 223.481 739.844 222.983 739.564 222.61C739.284 222.237 738.903 222.018 738.5 222C738.097 222.018 737.716 222.237 737.436 222.61C737.156 222.983 737 223.481 737 224C737 224.519 737.156 225.017 737.436 225.39C737.716 225.763 738.097 225.982 738.5 226Z" fill="black"/>
<path d="M764.5 220C764.903 219.978 765.284 219.704 765.564 219.238C765.844 218.772 766 218.148 766 217.5C766 216.852 765.844 216.228 765.564 215.762C765.284 215.296 764.903 215.022 764.5 215C764.097 215.022 763.716 215.296 763.436 215.762C763.156 216.228 763 216.852 763 217.5C763 218.148 763.156 218.772 763.436 219.238C763.716 219.704 764.097 219.978 764.5 220V220Z" fill="black"/>
<path d="M747.192 227C747.349 228.254 747.411 229.457 747.477 230.644C747.561 231.826 747.582 233 747.739 234.116C747.813 235.173 748.072 236.205 748.501 237.156C748.776 237.599 749.15 237.956 749.588 238.195C750.025 238.433 750.512 238.544 751 238.516C750.475 238.856 749.871 239.023 749.261 238.997C748.583 238.941 747.95 238.606 747.489 238.06C746.678 237.012 746.185 235.714 746.079 234.346C745.947 233.088 745.981 231.816 746.177 230.568C746.344 229.329 746.686 228.125 747.192 227V227Z" fill="black"/>
<path d="M745 247.785C748.589 250.192 752.729 251.256 756.856 250.832C757.356 250.789 757.851 250.696 758.336 250.553C758.833 250.461 759.32 250.314 759.793 250.115L761.237 249.571C761.692 249.309 762.157 249.064 762.627 248.824C763.561 248.298 764.47 247.714 765.351 247.077C766.233 246.418 767.065 245.66 768 245C767.346 246.005 766.644 246.966 765.896 247.879C765.099 248.758 764.234 249.548 763.311 250.241C761.434 251.682 759.292 252.592 757.058 252.899C754.845 253.182 752.606 252.867 750.515 251.98C748.424 251.093 746.536 249.658 745 247.785H745Z" fill="black"/>
<path d="M747 208C747.537 207.982 748.045 207.763 748.418 207.39C748.791 207.017 749 206.519 749 206C749 205.481 748.791 204.983 748.418 204.61C748.045 204.237 747.537 204.018 747 204C746.463 204.018 745.955 204.237 745.582 204.61C745.209 204.983 745 205.481 745 206C745 206.519 745.209 207.017 745.582 207.39C745.955 207.763 746.463 207.982 747 208Z" fill="black"/>
<path d="M789 224C789.537 223.982 790.045 223.763 790.418 223.39C790.791 223.017 791 222.519 791 222C791 221.481 790.791 220.983 790.418 220.61C790.045 220.237 789.537 220.018 789 220C788.463 220.018 787.955 220.237 787.582 220.61C787.209 220.983 787 221.481 787 222C787 222.519 787.209 223.017 787.582 223.39C787.955 223.763 788.463 223.982 789 224V224Z" fill="black"/>
<path d="M734.095 354L734 352.606L750.671 351.338L750.556 343.019L751.869 343L752 352.638L734.095 354Z" fill="black"/>
<path d="M750.834 326.618C750.482 318.164 750.155 309.71 749.94 301.253C749.714 292.797 749.44 284.341 749.325 275.883L750.129 276.722L731.994 277.329L713.853 277.772L714.648 276.867C714.848 286.388 715.004 295.91 715.07 305.433C715.184 314.955 715.215 324.477 715.162 334C714.673 324.485 714.261 314.971 713.928 305.456C713.551 295.942 713.265 286.427 713.023 276.911L713 276.031L713.818 276.005L731.95 275.44L750.088 275.018L750.882 275L750.893 275.858C750.999 284.315 750.976 292.776 750.994 301.236C751.024 309.695 750.941 318.157 750.834 326.618Z" fill="black"/>
<path d="M732 286C732.537 285.982 733.045 285.763 733.418 285.39C733.791 285.017 734 284.519 734 284C734 283.481 733.791 282.983 733.418 282.61C733.045 282.237 732.537 282.018 732 282C731.463 282.018 730.955 282.237 730.582 282.61C730.209 282.983 730 283.481 730 284C730 284.519 730.209 285.017 730.582 285.39C730.955 285.763 731.463 285.982 732 286V286Z" fill="black"/>
<path d="M690 376.979C697.279 364.397 704.648 351.889 712.107 339.457C713.839 336.375 715.23 332.914 716.748 329.601L721.223 319.551C722.746 316.215 724.305 312.897 725.929 309.607C726.743 307.964 727.573 306.328 728.462 304.716C728.914 303.913 729.358 303.106 729.875 302.326C730.132 301.924 730.407 301.536 730.699 301.164C730.856 300.959 731.027 300.768 731.211 300.592C731.314 300.491 731.422 300.396 731.535 300.309C731.699 300.207 731.872 300.123 732.051 300.06C732.348 299.986 732.655 299.981 732.954 300.043C733.253 300.105 733.537 300.233 733.789 300.42C734.232 300.798 734.558 301.321 734.718 301.913C734.984 302.894 735.081 303.921 735.005 304.941C734.889 306.854 734.579 308.746 734.082 310.583C733.075 314.174 731.848 317.685 730.407 321.091C727.671 327.918 724.739 334.667 722.346 341.607L721.968 342.919C721.859 343.29 721.819 343.682 721.85 344.072C721.931 344.264 722.332 344.319 722.717 344.214C723.113 344.13 723.502 344.003 723.876 343.835C725.419 343.124 726.905 342.269 728.315 341.277C729.752 340.306 731.127 339.262 732.494 338.154C733.879 337.069 735.281 336.025 736.693 334.99C739.516 332.927 742.375 330.922 745.296 329.018C746.762 328.073 748.237 327.144 749.761 326.289C750.526 325.865 751.301 325.46 752.118 325.109C752.538 324.922 752.972 324.774 753.415 324.667C753.676 324.599 753.944 324.577 754.211 324.602C754.43 324.612 754.64 324.696 754.814 324.843C754.988 324.99 755.116 325.192 755.183 325.422L755.133 325.28C755.379 325.847 755.525 326.461 755.564 327.088C755.606 327.691 755.569 328.298 755.453 328.889C755.197 330.041 754.709 331.115 754.026 332.031L753.777 330.96C754.533 331.315 755.218 331.832 755.792 332.482C756.404 333.16 756.807 334.034 756.943 334.979C756.995 335.885 756.88 336.792 756.605 337.647C756.33 338.502 755.901 339.287 755.343 339.953C753.284 342.367 750.886 344.399 748.242 345.97C745.714 347.623 743.13 349.132 740.556 350.634L736.724 352.903C736.097 353.29 735.473 353.681 734.88 354.091C734.588 354.297 734.3 354.508 734.051 354.72C733.944 354.809 733.843 354.907 733.748 355.013C733.687 355.072 733.715 355.066 733.711 355.054C733.688 355.077 733.732 355.016 733.757 354.891C733.762 354.781 733.753 354.671 733.73 354.564C733.702 354.457 733.646 354.362 733.57 354.289L733.568 354.274C733.533 354.265 733.625 354.3 733.67 354.32C733.803 354.375 733.939 354.421 734.076 354.459C734.391 354.542 734.727 354.613 735.072 354.673C735.763 354.792 736.471 354.885 737.185 354.963C738.613 355.12 740.058 355.228 741.504 355.326L750.211 355.834C751.667 355.92 753.121 356.003 754.596 356.134L755.725 356.261C755.914 356.284 756.124 356.323 756.353 356.375C756.674 356.46 756.972 356.629 757.221 356.87C757.607 357.303 757.864 357.855 757.959 358.453C758.054 359.051 757.983 359.666 757.755 360.219C757.418 361.192 756.787 362.008 755.969 362.528C755.576 362.767 755.155 362.946 754.719 363.058L753.644 363.335L749.399 364.429C743.757 365.943 738.127 367.52 732.606 369.426C729.856 370.351 727.166 371.484 724.557 372.817C722.033 374.273 719.738 376.169 717.762 378.433C715.695 380.646 713.804 383.053 712.112 385.625C711.263 386.897 710.499 388.236 709.827 389.631C709.501 390.302 709.244 391.01 709.062 391.744L708.649 394.107L705.215 413L705.043 412.966L707.838 393.93L708.207 391.553C708.389 390.73 708.657 389.934 709.006 389.18C709.671 387.721 710.434 386.318 711.288 384.983C712.967 382.314 714.853 379.81 716.923 377.499C718.951 375.083 721.319 373.045 723.936 371.464C726.584 370.034 729.318 368.808 732.118 367.794C737.665 365.706 743.309 364.027 748.983 362.521L753.237 361.407L754.288 361.132C754.561 361.064 754.823 360.954 755.069 360.806C755.522 360.515 755.871 360.062 756.059 359.522C756.26 359.001 756.153 358.437 756.029 358.382C756.003 358.358 755.973 358.34 755.94 358.33C755.813 358.304 755.664 358.274 755.491 358.253L754.447 358.141C753.021 358.02 751.567 357.942 750.117 357.862C747.213 357.707 744.301 357.566 741.385 357.334C739.926 357.22 738.467 357.097 737 356.92C736.266 356.833 735.53 356.729 734.784 356.593C734.41 356.523 734.032 356.442 733.64 356.332C733.425 356.272 733.213 356.196 733.007 356.105C732.871 356.052 732.741 355.98 732.62 355.891L732.391 355.709C732.255 355.561 732.149 355.383 732.08 355.187C732.029 355.014 732.012 354.831 732.029 354.65C732.046 354.469 732.098 354.295 732.181 354.137C732.261 353.979 732.361 353.834 732.477 353.705C732.637 353.524 732.809 353.356 732.993 353.205C733.323 352.93 733.645 352.701 733.967 352.478C734.612 352.041 735.257 351.646 735.903 351.256L739.786 349.008C742.37 347.533 744.945 346.062 747.441 344.465C749.951 343.032 752.244 341.179 754.24 338.971C754.686 338.473 755.039 337.883 755.277 337.233C755.515 336.584 755.634 335.889 755.627 335.189C755.491 334.525 755.209 333.908 754.806 333.392C754.402 332.877 753.891 332.479 753.315 332.233L752.55 331.839L753.066 331.162C753.645 330.418 754.067 329.542 754.3 328.596C754.399 328.133 754.437 327.657 754.413 327.182C754.392 326.729 754.301 326.284 754.142 325.866L754.092 325.723C754.082 325.857 754.25 325.83 754.082 325.82C753.927 325.807 753.772 325.82 753.621 325.859C753.236 325.944 752.858 326.065 752.492 326.22C751.728 326.528 750.966 326.904 750.213 327.302C748.708 328.105 747.227 328.989 745.764 329.908C742.839 331.753 739.964 333.708 737.124 335.72C735.706 336.728 734.292 337.749 732.907 338.803C731.535 339.882 730.11 340.933 728.65 341.887C727.195 342.879 725.665 343.73 724.077 344.431C723.665 344.607 723.239 344.738 722.805 344.822C722.551 344.917 722.277 344.922 722.021 344.838C721.765 344.754 721.538 344.584 721.373 344.352C721.266 343.827 721.296 343.279 721.458 342.771L721.836 341.413C724.155 334.359 727.12 327.65 729.639 320.729C730.978 317.331 732.107 313.836 733.016 310.268C733.448 308.514 733.702 306.712 733.773 304.896C733.857 303.189 733.418 301.069 732.339 301.529C732.309 301.555 732.311 301.576 732.284 301.575L732.119 301.736C731.988 301.871 731.866 302.016 731.754 302.171C731.5 302.511 731.263 302.866 731.042 303.233C730.579 303.974 730.139 304.759 729.708 305.546C728.851 307.129 728.041 308.757 727.245 310.394C725.654 313.669 724.141 316.999 722.623 320.328L718.06 330.32C716.498 333.642 715.116 337.018 713.258 340.261C705.649 352.611 697.944 364.886 690.145 377.087L690 376.979Z" fill="black"/>
<path d="M728 351L753.024 331L754 332.641L728 351Z" fill="black"/>
<path d="M700 393C700.604 392.114 701.269 391.272 701.99 390.481C702.681 389.716 703.298 388.885 703.831 388C704.043 388.579 704.056 389.214 703.868 389.801C703.682 390.375 703.385 390.906 702.994 391.362C702.235 392.268 701.166 392.853 700 393V393Z" fill="black"/>
<path d="M500.458 817.91C500.518 817.961 521.038 778.498 521 778.567C519.207 781.808 496.953 824.635 495.38 827.992C493.762 831.287 492.393 834.72 491.286 838.257C491.034 839.12 490.832 839.999 490.681 840.89C490.601 841.333 490.565 841.75 490.516 842.201C490.459 842.694 490.426 843.195 490.342 843.682C490.057 845.635 489.576 847.547 488.907 849.385C487.612 853.075 485.739 856.49 483.372 859.48C482.17 861.01 480.795 862.367 479.279 863.519C477.703 864.769 475.874 865.587 473.947 865.907C472.934 866.066 471.902 866.021 470.903 865.775C470.401 865.657 469.911 865.488 469.439 865.269L468.216 864.638C466.685 863.948 465.095 863.426 463.469 863.08C460.03 861.992 456.747 860.385 453.716 858.305C450.689 856.341 447.814 854.165 444.999 851.918C439.378 847.409 433.927 842.701 428.455 838.017C425.723 835.671 423.012 833.296 420.322 830.893C417.592 828.543 414.899 826.143 412.198 823.753C401.374 814.216 390.866 804.267 380.504 794.152L380.462 794.112C380.224 793.88 380.067 793.565 380.017 793.222C379.967 792.878 380.027 792.526 380.187 792.225C380.368 791.874 380.591 791.551 380.85 791.264C381.054 791.027 381.274 790.805 381.506 790.602C381.94 790.22 382.407 789.888 382.902 789.61C383.366 789.328 383.852 789.092 384.354 788.904C384.834 788.699 385.327 788.532 385.829 788.407C387.753 787.892 389.732 787.66 391.713 787.717C395.527 787.837 399.318 788.4 403.021 789.399C404.845 789.909 406.662 790.441 408.453 791.041C410.223 791.679 412.042 792.282 413.769 792.949C417.259 794.256 420.733 795.601 424.233 796.844C431.16 799.458 438.273 801.445 445.499 802.785C449.077 803.407 452.724 803.394 456.298 802.747C464.289 802.712 486.938 764.139 489.243 761C489.64 761.186 490.017 761.419 490.368 761.694C490.428 761.746 465.731 797.013 465.691 797.081C463.527 800.521 460.277 802.971 456.562 803.965C452.877 804.919 449.068 805.172 445.303 804.714C437.883 803.788 430.564 802.08 423.447 799.614C419.885 798.467 416.337 797.291 412.82 796.028C411.053 795.378 409.325 794.842 407.576 794.243C405.828 793.689 404.064 793.205 402.303 792.743C398.824 791.808 395.266 791.27 391.685 791.138C389.967 791.071 388.249 791.239 386.57 791.637C386.169 791.725 385.775 791.848 385.392 792.004C385.016 792.132 384.652 792.298 384.306 792.501C383.974 792.675 383.661 792.885 383.369 793.13C383.239 793.238 383.116 793.356 383.001 793.483C382.904 793.571 382.768 793.786 382.805 793.702L382.488 791.775C392.685 802.056 402.929 812.281 413.22 822.448C415.818 824.959 418.408 827.482 421.037 829.956C423.677 832.414 426.355 834.823 429.044 837.216C434.401 842.023 439.989 846.517 445.784 850.678C448.681 852.741 451.633 854.714 454.667 856.457C457.622 858.246 460.783 859.598 464.066 860.475C465.86 860.805 467.618 861.334 469.314 862.054L469.958 862.391L470.449 862.632C470.776 862.783 471.117 862.898 471.465 862.976C472.165 863.145 472.889 863.17 473.598 863.05C476.706 862.265 479.48 860.359 481.472 857.642C483.69 854.916 485.485 851.812 486.785 848.455C487.432 846.783 487.937 845.049 488.291 843.276C488.389 842.836 488.437 842.392 488.51 841.949C488.584 841.462 488.658 840.939 488.77 840.458C488.979 839.495 489.245 838.548 489.564 837.621C490.842 834.035 492.435 830.592 494.322 827.341C496.171 824.104 518.86 781.572 521 778.567" fill="#020202"/>
<path d="M481 829C480.79 830.281 480.28 831.492 479.511 832.535C478.737 833.621 477.721 834.51 476.543 835.129C475.357 835.757 474.025 836.055 472.686 835.992C471.393 835.951 470.129 835.599 469 834.965C470.21 835.011 471.423 834.961 472.625 834.815C473.754 834.673 474.848 834.325 475.853 833.789C477.914 832.614 479.675 830.974 481 829Z" fill="#020202"/>
<path d="M474.037 864.508C474.037 864.508 479.009 872.542 466.357 882.966C466.357 882.966 463.564 888.409 448.098 874.321L367 808.224C367 808.224 370.786 788.644 385.16 795.944L404.11 814.651C404.11 814.651 407.983 797.112 412.311 793.889C417.088 791.745 422.373 791.416 427.337 792.953C432.301 794.491 436.664 797.807 439.744 802.384C439.744 802.384 424.574 823.209 434.645 842.796C434.645 842.796 457.485 859.565 474.037 864.508Z" fill="#6A45A5"/>
<path d="M614.413 943.891C614.487 943.908 617.006 898.484 617 898.565C616.696 902.347 613.976 951.635 613.916 955.416C613.792 959.162 613.947 962.914 614.378 966.633C614.5 967.532 614.673 968.421 614.897 969.296C615.003 969.734 615.139 970.127 615.277 970.557C615.425 971.029 615.597 971.496 615.718 971.975C616.25 973.872 616.589 975.826 616.729 977.804C617.054 981.75 616.749 985.729 615.828 989.561C615.365 991.517 614.677 993.401 613.78 995.168C612.867 997.052 611.555 998.668 609.953 999.883C609.106 1000.51 608.161 1000.97 607.165 1001.23C606.667 1001.36 606.158 1001.45 605.645 1001.48L604.292 1001.5C602.639 1001.61 601 1001.9 599.4 1002.37C595.871 1003.05 592.273 1003.18 588.712 1002.76C585.2 1002.45 581.74 1001.87 578.304 1001.2C571.436 999.839 564.64 998.218 557.835 996.63C554.435 995.829 551.041 994.993 547.655 994.122C544.255 993.317 540.868 992.45 537.477 991.596C523.907 988.208 510.454 984.297 497.065 980.166L497.011 980.15C496.704 980.055 496.437 979.847 496.253 979.562C496.069 979.276 495.981 978.93 496.003 978.582C496.025 978.179 496.094 977.78 496.211 977.397C496.299 977.085 496.407 976.78 496.534 976.485C496.77 975.933 497.056 975.409 497.388 974.92C497.691 974.443 498.032 973.997 498.408 973.586C498.756 973.17 499.132 972.783 499.533 972.429C501.054 971.039 502.738 969.879 504.541 968.978C508.015 967.252 511.648 965.937 515.378 965.055C517.222 964.638 519.069 964.243 520.92 963.923C522.767 963.647 524.645 963.315 526.466 963.086C530.128 962.585 533.791 962.127 537.437 961.564C544.714 960.588 551.906 958.958 558.938 956.691C562.403 955.531 565.674 953.765 568.624 951.463C575.789 947.589 580.58 901.944 581.385 898.008C581.817 897.985 582.25 898.013 582.676 898.092C582.751 898.11 574.787 941.761 574.778 941.842C574.221 945.981 572.29 949.752 569.353 952.434C566.427 955.065 563.107 957.125 559.54 958.523C552.501 961.256 545.236 963.237 537.847 964.437C534.186 965.117 530.524 965.763 526.854 966.317C525.005 966.58 523.236 966.929 521.424 967.23C519.63 967.571 517.85 967.983 516.081 968.414C512.579 969.245 509.165 970.471 505.895 972.073C504.325 972.839 502.849 973.817 501.501 974.983C501.176 975.255 500.871 975.555 500.59 975.88C500.304 976.176 500.045 976.5 499.815 976.85C499.587 977.166 499.39 977.507 499.227 977.867C499.154 978.027 499.091 978.193 499.038 978.362C498.987 978.488 498.952 978.747 498.951 978.654L497.889 977.07C511.197 981.43 524.523 985.716 537.869 989.928C541.216 990.941 544.561 991.969 547.919 992.934C551.283 993.879 554.66 994.762 558.041 995.625C564.793 997.38 571.625 998.742 578.509 999.705C581.945 1000.17 585.392 1000.53 588.82 1000.64C592.197 1000.83 595.581 1000.53 598.885 999.741C600.63 999.176 602.423 998.807 604.236 998.64L604.951 998.634L605.489 998.615C605.844 998.593 606.196 998.533 606.541 998.436C607.238 998.252 607.898 997.927 608.487 997.477C610.962 995.275 612.686 992.224 613.379 988.818C614.273 985.295 614.634 981.636 614.447 977.986C614.355 976.168 614.109 974.363 613.712 972.596C613.622 972.152 613.486 971.729 613.373 971.294C613.244 970.821 613.1 970.314 613.006 969.826C612.806 968.858 612.662 967.877 612.575 966.889C612.277 963.043 612.32 959.175 612.704 955.339C613.06 951.533 616.29 902.302 617 898.565" fill="#020202"/>
<path d="M600.677 963C601.026 964.281 601.093 965.635 600.873 966.951C600.667 968.309 600.174 969.594 599.435 970.704C598.692 971.826 597.69 972.708 596.533 973.259C595.425 973.81 594.214 974.06 593 973.988C594.041 973.479 595.043 972.881 595.998 972.198C596.893 971.552 597.674 970.732 598.301 969.778C599.557 967.751 600.371 965.431 600.677 963V963Z" fill="#020202"/>
<path d="M609.454 998.692C609.454 998.692 617.136 1003.46 609.885 1018.88C609.885 1018.88 609.537 1025.09 589.984 1019.99L490.557 1000.24C490.557 1000.24 486.168 980.933 502.033 980.495L526.566 988.023C526.566 988.023 523.068 970.498 525.685 965.528C529.137 961.304 533.769 958.455 538.855 957.426C543.942 956.396 549.196 957.246 553.796 959.84C553.796 959.84 548.418 985.761 565.3 998.369C565.3 998.369 592.566 1002.29 609.454 998.692Z" fill="#6A45A5"/>
<path d="M635.398 696.516C637.738 694.484 640.155 692.558 642.649 690.78C645.143 689.002 647.732 687.351 650.38 685.848C653.041 684.268 655.819 682.944 658.686 681.89C666.8 676.365 710.501 647.429 716.121 647.429C707.604 645.63 699.106 643.704 690.569 641.989C682.052 640.19 673.521 638.447 664.978 636.761C656.461 635.11 647.924 633.438 639.369 632.02C630.813 630.517 622.257 629.225 613.682 628.209L607.236 627.468L604.186 627.363C603.173 627.375 602.161 627.453 601.155 627.596C597.129 628.141 593.283 629.761 589.952 632.316C583.2 637.438 578.691 645.757 575.43 654.351C572.261 663.164 569.952 672.325 568.544 681.678C567.009 691.08 566.042 700.584 565.646 710.127C565.646 710.127 545.024 875.486 551.279 893.415C557.513 911.323 625.576 912 625.576 912C625.576 912 649.612 695.881 658.206 682.44C656.275 684.659 654.198 686.718 651.992 688.6C649.651 690.653 647.234 692.565 644.74 694.336C642.246 696.135 639.656 697.765 637.009 699.289C634.348 700.869 631.569 702.194 628.703 703.248C630.755 700.796 632.995 698.544 635.398 696.516V696.516ZM857.771 534.311C849.35 543.286 842.578 544.26 842.578 544.26L829.438 552.113C830.167 553.679 830.953 555.224 831.797 556.727C834.313 561.459 837.412 565.784 841.005 569.576C836.374 566.992 832.369 563.226 829.323 558.59C826.206 554.037 823.628 549.065 821.649 543.794C820.652 541.19 819.769 538.523 818.944 535.856C818.215 533.147 817.448 530.458 816.911 527.707C815.684 522.235 814.971 516.638 814.782 511.006L819.597 526.225L821.496 519.959C826.176 503.428 824.776 478.62 824.776 478.62C816.815 481.731 720.342 475 720.342 475C720.342 475 675.856 544.26 667.894 546.842C675.779 545.297 683.663 544.111 691.567 542.99C699.47 541.825 707.374 540.852 715.258 539.793L738.949 536.809L762.699 533.739C755.07 536.43 747.282 538.538 739.391 540.047C731.544 541.698 723.622 542.926 715.699 543.984C707.776 545 699.828 545.77 691.854 546.292C683.874 546.779 675.894 547.054 667.894 546.842C659.933 549.424 563.134 540.64 540.037 589.558C516.94 638.475 472.607 751.467 475.101 762.495C477.595 773.523 506.946 795.558 514.446 797.633L565.646 710.127C565.298 700.522 565.651 690.903 566.702 681.361C567.681 671.732 569.677 662.262 572.649 653.145C574.168 648.519 576.163 644.101 578.595 639.978C581.057 635.741 584.197 632.033 587.861 629.035C591.652 626.047 596.055 624.142 600.676 623.489C601.826 623.404 602.978 623.171 604.128 623.193L607.562 623.298L614.084 623.997C631.426 626.156 648.557 629.522 665.554 633.522C682.57 637.459 699.432 642.137 716.121 647.429C721.742 647.429 890.594 730.723 857.771 534.311ZM731.468 502.877C730.144 506.01 728.725 509.079 727.152 512.064C725.598 515.049 723.916 517.956 722.106 520.785C720.319 523.673 718.317 526.392 716.121 528.913C717.02 525.561 718.156 522.291 719.517 519.134C720.84 516.001 722.26 512.932 723.833 509.947C725.387 506.963 727.068 504.056 728.878 501.226C730.671 498.343 732.673 495.625 734.864 493.098C733.964 496.451 732.829 499.72 731.468 502.877V502.877ZM784.817 546.842C783.501 542.517 782.431 538.106 781.613 533.634C780.731 529.21 780.078 524.743 779.484 520.256C778.947 515.768 778.448 511.281 778.179 506.751C777.853 502.209 777.776 497.65 777.949 493.098C779.261 497.423 780.325 501.834 781.134 506.306C782.016 510.73 782.668 515.197 783.282 519.663C783.819 524.151 784.299 528.638 784.587 533.168C784.913 537.717 784.99 542.283 784.817 546.842L784.817 546.842Z" fill="#F20201"/>
</svg>
