<svg width="700" height="550" viewBox="0 0 700 550" fill="none" xmlns="http://www.w3.org/2000/svg">
<path d="M269.87 90.6665L272.246 83.3176C272.023 86.1967 272.075 89.0905 272.4 91.9598C272.094 91.5765 271.711 91.2627 271.275 91.0397C270.838 90.8166 270.36 90.6894 269.87 90.6665Z" fill="#6A45A5"/>
<path d="M297.301 83.9309L299.476 90.6667C298.939 90.6923 298.416 90.8434 297.949 91.108C297.481 91.3725 297.082 91.7431 296.784 92.19C296.889 91.5289 296.975 90.9252 297.033 90.3697C297.234 88.3383 297.301 86.0581 297.301 83.9309Z" fill="#6A45A5"/>
<path d="M312.257 122.007L300.712 119.535C300.712 119.535 294.359 115.654 293.353 101.972V101.599C294.617 99.5706 295.56 97.3602 296.151 95.0451C296.221 95.9579 296.64 96.8085 297.322 97.4192C298.005 98.0298 298.896 98.3532 299.811 98.3218C304.535 98.3218 304.736 91.2702 300.386 90.6952C303.969 84.0651 298.422 83.3849 297.291 83.3178C297.272 79.3129 297.033 75.9691 297.033 75.9691C289.761 79.8397 285.219 70.4504 285.219 70.4504C285.219 70.4504 282.67 76.7548 273.061 77.4828V76.8889C272.658 79.01 272.386 81.1538 272.246 83.3082C272.246 83.3082 264.984 83.3465 268.96 90.6952C264.62 91.2702 264.802 98.3217 269.535 98.3217C270.337 98.3559 271.127 98.1125 271.771 97.6326C272.415 97.1527 272.873 96.4656 273.07 95.6869C273.452 97.2325 274.021 98.7256 274.766 100.133L274.776 101.158V104.195C274.815 106.769 274.156 109.305 272.869 111.534C267.954 119.755 256.59 118.72 256.59 118.72L250.564 118.059C250.564 118.059 265.357 77.7702 267.762 73.8898C270.177 70.0096 283.274 58.2631 297.301 69.3963C297.301 69.3963 304.199 74.6276 312.257 122.007Z" fill="#6A45A5"/>
<path d="M243.358 181.37C244.23 180.541 245.211 179.835 246.275 179.273C247.333 178.698 248.451 178.239 249.607 177.903L249.531 178.176L246.283 174.912C246.016 174.648 245.732 174.345 245.484 174.126C245.207 173.912 244.883 173.769 244.538 173.708C243.769 173.592 243.012 173.409 242.275 173.162C241.539 172.886 240.833 172.537 240.166 172.121C239.469 171.721 238.841 171.212 238.303 170.615C238.02 170.269 237.843 169.847 237.796 169.402C237.758 168.942 237.889 168.484 238.164 168.113C238.669 167.446 239.34 166.922 240.11 166.593L240.032 167.219C239.511 166.83 239.022 166.402 238.567 165.938C238.038 165.447 237.69 164.792 237.579 164.079C237.573 163.873 237.594 163.668 237.644 163.468C237.718 163.279 237.815 163.1 237.933 162.935C238.166 162.647 238.455 162.41 238.783 162.238C239.383 161.92 240.032 161.705 240.703 161.602L240.64 162.438C240.077 162.283 239.575 161.961 239.199 161.515C239.012 161.288 238.864 161.032 238.761 160.756C238.652 160.477 238.59 160.181 238.577 159.882L238.585 159.967C238.481 159.638 238.456 159.289 238.511 158.949C238.567 158.609 238.701 158.286 238.905 158.008C239.108 157.729 239.374 157.502 239.681 157.345C239.988 157.189 240.328 157.107 240.673 157.105C241.267 157.042 241.866 157.05 242.458 157.129C243.037 157.2 243.61 157.314 244.172 157.471L243.764 158.354C243.375 158.098 243.021 157.793 242.712 157.444C242.515 157.245 242.363 157.007 242.265 156.745C242.167 156.484 242.125 156.204 242.142 155.925C242.189 155.613 242.331 155.323 242.55 155.096C242.735 154.912 242.946 154.757 243.176 154.636C243.603 154.401 244.077 154.262 244.563 154.229C246.278 154.151 247.996 154.279 249.68 154.61C250.511 154.748 251.337 154.906 252.159 155.077C253.016 155.231 253.854 155.476 254.66 155.808C256.289 156.495 257.727 157.566 258.853 158.928L271.819 174.148L271.299 173.906C274.477 173.843 277.651 173.62 280.807 173.239C283.978 172.891 287.146 172.468 290.308 171.997C296.631 171.064 302.941 169.966 309.227 168.82L308.933 168.945C311.278 167.282 313.613 165.594 315.916 163.875C317.066 163.014 318.211 162.146 319.331 161.257L320.165 160.587L320.584 160.247L321.075 159.887C321.73 159.459 322.438 159.116 323.18 158.868C326.029 158.02 329.001 157.658 331.97 157.796L333.072 157.833C333.47 157.854 333.865 157.907 334.254 157.993C335.04 158.165 335.787 158.478 336.46 158.919C337.155 159.355 337.754 159.927 338.222 160.6C338.689 161.274 339.015 162.035 339.181 162.839L338.864 162.346C339.347 162.631 339.811 162.947 340.253 163.292C340.713 163.655 341.119 164.08 341.46 164.556C341.839 165.063 342.078 165.659 342.155 166.287C342.233 166.962 342.076 167.643 341.711 168.217L341.649 167.457C342.265 168.087 342.883 168.695 343.497 169.343C343.81 169.692 344.096 170.063 344.354 170.454C344.661 170.89 344.858 171.394 344.928 171.923C344.953 172.278 344.847 172.631 344.63 172.913C344.426 173.157 344.158 173.339 343.857 173.441C343.383 173.599 342.885 173.675 342.385 173.666C341.471 173.659 340.559 173.556 339.667 173.358L340.093 172.441C340.858 173.036 341.493 173.781 341.96 174.63C342.221 175.112 342.331 175.661 342.276 176.206C342.239 176.527 342.109 176.83 341.903 177.078C341.779 177.203 341.636 177.307 341.478 177.385C341.335 177.44 341.186 177.483 341.035 177.511C340.058 177.547 339.087 177.352 338.2 176.942C337.352 176.604 336.527 176.212 335.731 175.767L335.99 175.822L330.369 176.319L330.606 176.213C329.605 177.188 328.546 178.101 327.436 178.948C326.295 179.778 325.063 180.476 323.766 181.029C321.183 182.092 318.491 182.868 315.739 183.344C314.36 183.591 313.042 183.87 311.713 184.227C310.391 184.604 309.071 184.994 307.767 185.448C305.148 186.314 302.558 187.278 299.969 188.246C289.616 192.122 279.4 196.395 268.889 199.899C263.652 201.738 258.288 203.195 252.84 204.26C250.074 204.862 247.21 204.858 244.445 204.248C241.647 203.573 239.127 202.05 237.227 199.888C235.382 197.731 233.974 195.235 233.084 192.54C232.185 189.885 231.552 187.147 231.195 184.366C231.016 182.988 230.812 181.629 230.676 180.227C230.542 178.839 230.445 177.454 230.36 176.069C230.194 173.298 230.08 170.533 229.999 167.759L231.021 168.281C230.315 168.732 229.517 169.019 228.686 169.122C227.913 169.234 227.131 169.261 226.352 169.203C225.592 169.158 224.836 169.066 224.087 168.927C223.338 168.793 222.596 168.621 221.865 168.411L221.408 168.278L221.377 167.809C221.285 166.521 221.474 165.229 221.931 164.022C222.433 162.863 223.122 161.795 223.972 160.861C224.805 159.954 225.738 159.144 226.753 158.447C227.757 157.739 228.826 157.127 229.945 156.619L229.971 158.047C229.912 158.024 229.856 157.994 229.804 157.96C229.77 157.937 229.738 157.912 229.708 157.885L229.636 157.81C229.595 157.767 229.559 157.721 229.527 157.671L229.42 157.482C229.367 157.369 229.339 157.284 229.3 157.182C229.239 156.997 229.199 156.832 229.155 156.66C229.089 156.333 229.029 156.007 228.993 155.694C228.91 155.06 228.857 154.439 228.825 153.82C228.748 152.58 228.737 151.353 228.733 150.125C228.741 147.673 228.818 145.231 228.936 142.792C229.051 140.354 229.205 137.92 229.375 135.488C229.492 132.97 229.993 130.486 230.861 128.119C231.321 126.924 231.913 125.783 232.624 124.718C234.092 122.591 236.059 120.858 238.353 119.668C239.478 119.07 240.662 118.591 241.886 118.237C244.304 117.538 246.808 117.176 249.326 117.163C251.833 117.117 254.337 117.346 256.795 117.843L257.347 117.958L257.471 118.52C258.376 122.623 259.121 126.729 259.672 130.893C259.953 132.971 260.148 135.067 260.255 137.181C260.417 139.34 260.297 141.511 259.899 143.639L259.189 142.571C264.132 143.454 269.003 144.545 273.834 145.907C276.248 146.585 278.639 147.373 280.996 148.291C283.436 149.158 285.724 150.406 287.776 151.987L286.735 151.928C288.424 150.801 290.133 149.783 291.882 148.797C293.632 147.823 295.406 146.887 297.235 146.053C299.061 145.199 300.936 144.454 302.849 143.821C304.787 143.174 306.788 142.736 308.819 142.514L308.2 143.469L300.159 119.731L299.846 118.807L300.796 118.96C305.31 119.686 309.772 120.707 314.153 122.015C316.35 122.672 318.505 123.459 320.607 124.373C322.747 125.267 324.752 126.457 326.562 127.909C329.921 131.191 331.949 135.6 332.254 140.287C332.499 144.886 331.696 149.48 329.907 153.723L329.799 153.466C330.669 153.881 331.509 154.354 332.314 154.882C333.124 155.402 333.888 155.991 334.596 156.643C335.32 157.284 335.943 158.031 336.443 158.859C336.95 159.692 337.231 160.643 337.259 161.618H337.088C337.042 160.679 336.752 159.769 336.247 158.977C335.743 158.181 335.121 157.466 334.403 156.856C332.97 155.623 331.364 154.605 329.637 153.837L329.463 153.757L329.529 153.579C331.203 149.381 331.902 144.857 331.574 140.348C331.356 138.125 330.768 135.954 329.834 133.925C329.596 133.423 329.32 132.939 329.066 132.445L328.166 131.04C327.824 130.603 327.507 130.138 327.148 129.722C326.76 129.34 326.392 128.941 325.993 128.57C324.235 127.198 322.295 126.077 320.228 125.241C318.152 124.366 316.026 123.616 313.861 122.994C309.517 121.749 305.097 120.789 300.629 120.119L301.266 119.349L309.566 142.998L309.867 143.856L308.947 143.954C307.032 144.188 305.147 144.624 303.323 145.255C301.474 145.89 299.665 146.633 297.903 147.48C296.128 148.312 294.398 149.249 292.692 150.224C290.994 151.204 289.303 152.242 287.7 153.331L287.167 153.693L286.659 153.273C284.748 151.825 282.625 150.683 280.364 149.887C278.083 149.003 275.74 148.234 273.361 147.572C268.611 146.24 263.753 145.163 258.897 144.305L257.99 144.145L258.187 143.237C258.541 141.266 258.642 139.258 258.487 137.262C258.381 135.22 258.187 133.169 257.905 131.125C257.357 127.038 256.607 122.947 255.712 118.925L256.388 119.601C251.759 118.617 246.964 118.724 242.383 119.913C241.266 120.229 240.185 120.66 239.157 121.2C237.105 122.25 235.342 123.787 234.022 125.676C233.378 126.633 232.842 127.658 232.422 128.732C231.605 130.939 231.129 133.257 231.013 135.607C230.832 138.029 230.667 140.45 230.541 142.872C230.412 145.293 230.324 147.715 230.305 150.129C230.303 151.334 230.309 152.541 230.377 153.73C230.404 154.326 230.453 154.918 230.525 155.491C230.557 155.782 230.608 156.055 230.659 156.325C230.69 156.447 230.722 156.578 230.755 156.682L230.802 156.807C230.804 156.81 230.805 156.813 230.805 156.817C230.812 156.833 230.785 156.785 230.765 156.768L230.73 156.737L230.656 156.68C230.611 156.651 230.563 156.627 230.512 156.609L230.538 158.037C229.515 158.498 228.535 159.049 227.61 159.685C226.679 160.308 225.822 161.035 225.055 161.852C224.312 162.651 223.705 163.566 223.257 164.56C222.873 165.554 222.705 166.619 222.765 167.682L222.278 167.08C222.955 167.281 223.643 167.447 224.337 167.579C225.031 167.715 225.732 167.808 226.437 167.857C227.123 167.917 227.813 167.901 228.495 167.811C229.126 167.743 229.736 167.538 230.28 167.21L231.279 166.546L231.301 167.732C231.352 170.487 231.437 173.25 231.573 176.002C231.643 177.378 231.725 178.753 231.843 180.119C231.959 181.47 232.15 182.85 232.313 184.215C232.632 186.928 233.22 189.603 234.067 192.2C234.889 194.78 236.204 197.176 237.941 199.254C239.697 201.299 242.042 202.751 244.655 203.412C247.304 204.023 250.055 204.053 252.717 203.499C258.142 202.513 263.483 201.114 268.694 199.312C273.94 197.585 279.125 195.665 284.292 193.699L299.775 187.732C302.361 186.749 304.95 185.769 307.578 184.885C308.884 184.421 310.214 184.02 311.549 183.631C312.886 183.263 314.277 182.962 315.617 182.715C318.318 182.238 320.957 181.459 323.484 180.393C324.725 179.844 325.9 179.157 326.987 178.344C328.063 177.498 329.088 176.588 330.055 175.619L330.152 175.527L330.292 175.513L335.905 174.938L336.037 174.924L336.165 174.992C336.93 175.405 337.72 175.768 338.532 176.078C339.27 176.408 340.071 176.572 340.879 176.561C341.408 176.566 341.427 175.75 341.069 175.083C340.659 174.376 340.113 173.758 339.463 173.264L337.815 171.944L339.889 172.346C340.704 172.514 341.534 172.597 342.367 172.594C342.741 172.598 343.113 172.54 343.469 172.423C343.791 172.279 343.825 172.209 343.823 171.994C343.599 171.28 343.199 170.635 342.658 170.118L340.817 168.289L340.49 167.964L340.755 167.53C340.937 167.191 341.01 166.804 340.965 166.423C340.903 165.998 340.731 165.597 340.465 165.26C340.184 164.882 339.852 164.546 339.477 164.26C339.083 163.962 338.669 163.689 338.24 163.443L337.979 163.288L337.924 162.95C337.793 162.359 337.53 161.805 337.153 161.332C336.757 160.821 336.28 160.379 335.74 160.024C335.198 159.68 334.598 159.439 333.969 159.311C333.653 159.246 333.332 159.207 333.009 159.194L331.95 159.173C329.147 159.07 326.346 159.422 323.656 160.216C323.03 160.427 322.434 160.717 321.882 161.079L321.501 161.359L321.082 161.702L320.234 162.39C319.099 163.298 317.95 164.177 316.796 165.048C314.485 166.788 312.155 168.489 309.803 170.172L309.671 170.266L309.509 170.297C303.201 171.502 296.874 172.539 290.518 173.447C287.341 173.903 284.155 174.312 280.957 174.646C277.75 175.016 274.527 175.224 271.299 175.271L270.981 175.271L270.778 175.029L257.907 159.729C256.919 158.496 255.646 157.521 254.198 156.889C253.465 156.576 252.701 156.343 251.918 156.194C251.111 156.015 250.302 155.85 249.491 155.704C247.907 155.371 246.289 155.226 244.671 155.27C244.323 155.282 243.982 155.373 243.675 155.537C243.359 155.693 243.148 155.906 243.146 156.065C243.154 156.342 243.271 156.605 243.471 156.797C243.714 157.075 243.991 157.32 244.295 157.528L246.793 159.236L243.887 158.411C242.886 158.099 241.838 157.972 240.792 158.036C240.354 158.051 239.94 158.238 239.639 158.556C239.426 158.932 239.363 159.375 239.465 159.796L239.472 159.852L239.473 159.881C239.484 160.074 239.524 160.264 239.59 160.445C239.657 160.633 239.755 160.808 239.881 160.964C240.141 161.277 240.49 161.504 240.882 161.615L242.642 162.165L240.82 162.451C240.251 162.533 239.699 162.708 239.186 162.968C238.702 163.232 238.329 163.596 238.387 164.035C238.399 164.152 238.423 164.268 238.458 164.38L238.618 164.739C238.773 164.98 238.946 165.208 239.136 165.422C239.549 165.86 239.995 166.267 240.469 166.638L240.927 167.021L240.391 167.264C239.739 167.527 239.165 167.951 238.722 168.497C238.529 168.75 238.432 169.063 238.446 169.381C238.461 169.698 238.586 170.001 238.801 170.235C239.284 170.785 239.848 171.256 240.474 171.634C241.1 172.043 241.765 172.39 242.459 172.669C243.17 172.923 243.903 173.116 244.648 173.244C245.06 173.33 245.445 173.513 245.771 173.778C246.09 174.074 246.322 174.341 246.594 174.62L249.762 177.945L249.955 178.148L249.686 178.219C248.545 178.525 247.44 178.952 246.39 179.492C245.332 180.023 244.351 180.696 243.476 181.492L243.358 181.37Z" fill="black"/>
<path d="M260.371 168.052C259.933 169.22 259.297 170.303 258.489 171.254C257.716 172.224 256.801 173.073 255.775 173.771C255.904 173.142 256.135 172.538 256.458 171.983C256.76 171.441 257.109 170.927 257.501 170.446C257.895 169.969 258.327 169.526 258.793 169.119C259.266 168.692 259.798 168.333 260.371 168.052Z" fill="black"/>
<path d="M240.359 166.517L245.609 168.114C246.493 168.409 247.325 168.844 248.072 169.401L250.362 170.911L247.962 169.583C247.202 169.101 246.37 168.744 245.497 168.525L240.143 167.34L240.359 166.517Z" fill="black"/>
<path d="M240.844 161.609L247.784 163.197C248.978 163.431 250.095 163.958 251.034 164.73L253.834 166.928L250.908 164.901C249.963 164.212 248.861 163.77 247.702 163.615L240.679 162.443L240.844 161.609Z" fill="black"/>
<path d="M244.117 157.524L247.607 158.368C248.775 158.665 249.921 158.894 251.108 159.246C251.69 159.446 252.244 159.719 252.757 160.059C253.26 160.409 253.726 160.768 254.212 161.122L257.102 163.252L254.091 161.296C253.59 160.975 253.086 160.634 252.588 160.33C252.084 160.037 251.544 159.809 250.982 159.653C249.858 159.39 248.641 159.215 247.475 158.992L243.942 158.357L244.117 157.524Z" fill="black"/>
<path d="M249.746 178.474L249.548 177.647C250.214 177.487 265.921 173.774 271.331 174.164L271.267 175.013C265.971 174.589 249.907 178.435 249.746 178.474Z" fill="black"/>
<path d="M327.573 164.477C329.322 163.792 331.118 163.234 332.948 162.808C333.87 162.587 334.808 162.433 335.752 162.346C336.727 162.233 337.714 162.28 338.673 162.486L338.432 163.302C337.572 163.054 336.678 162.946 335.784 162.983C334.86 162.999 333.939 163.08 333.026 163.226C331.181 163.511 329.358 163.929 327.573 164.477V164.477Z" fill="black"/>
<path d="M329.718 168.052C331.616 167.643 333.537 167.349 335.47 167.171C336.445 167.077 337.423 167.04 338.402 167.061C339.408 167.06 340.41 167.199 341.378 167.473L341.089 168.273C340.21 167.958 339.293 167.765 338.363 167.698C337.409 167.608 336.45 167.574 335.492 167.596C333.56 167.632 331.632 167.784 329.718 168.052Z" fill="black"/>
<path d="M331.148 172.341C332.588 172.181 334.037 172.084 335.494 172.066C336.973 172.016 338.453 172.143 339.902 172.445L339.654 173.259C338.297 172.839 336.896 172.581 335.478 172.491C334.043 172.368 332.596 172.323 331.148 172.341Z" fill="black"/>
<path d="M323.692 164.988C324.468 165.177 325.157 165.621 325.65 166.25C325.925 166.595 326.116 167 326.206 167.432C326.26 167.814 326.293 168.2 326.304 168.586C326.287 169.235 326.357 169.883 326.512 170.513C326.744 171.158 327.105 171.75 327.573 172.251C327.173 172.185 326.791 172.034 326.453 171.809C326.116 171.584 325.83 171.29 325.614 170.946C325.219 170.237 325.017 169.437 325.028 168.625C325.028 168.271 325.031 167.869 325.013 167.606C324.991 167.317 324.921 167.033 324.804 166.768C324.5 166.135 324.127 165.538 323.692 164.988V164.988Z" fill="black"/>
<path d="M229.882 156.557C230.344 156.427 230.816 156.34 231.294 156.296C231.757 156.247 232.224 156.242 232.688 156.281C233.607 156.319 234.481 156.691 235.144 157.328C234.396 156.966 233.54 156.896 232.743 157.13C232.354 157.228 231.975 157.363 231.612 157.532C231.259 157.69 230.921 157.88 230.602 158.099L229.882 156.557Z" fill="black"/>
<path d="M230.65 167.745C231.34 167.355 232.08 167.06 232.849 166.867C233.603 166.665 234.374 166.529 235.152 166.46C235.936 166.394 236.724 166.405 237.505 166.495C238.303 166.574 239.08 166.798 239.798 167.156C238.217 167.43 236.769 167.593 235.259 167.731C233.727 167.888 232.183 167.893 230.65 167.745V167.745Z" fill="black"/>
<path d="M335.948 175.38C336.485 177.252 336.832 179.173 336.984 181.115C337.165 183.069 337.14 185.037 336.91 186.986C336.722 188.997 336.066 190.936 334.994 192.647C334.419 193.516 333.611 194.206 332.663 194.637C331.731 195.023 330.705 195.119 329.718 194.912C330.657 194.857 331.568 194.572 332.372 194.082C333.119 193.585 333.731 192.909 334.152 192.115C334.972 190.458 335.479 188.664 335.645 186.823C335.871 184.94 335.987 183.047 335.992 181.151C336.011 179.241 335.979 177.323 335.948 175.38Z" fill="black"/>
<path d="M313.581 142.723C314.684 143.97 315.679 145.309 316.555 146.725C317.447 148.131 318.245 149.595 318.943 151.106C319.657 152.623 320.225 154.203 320.641 155.827C321.11 157.449 321.236 159.152 321.011 160.826C320.737 159.216 320.294 157.639 319.689 156.122C319.118 154.607 318.482 153.112 317.784 151.639C316.439 148.668 314.935 145.766 313.581 142.723Z" fill="black"/>
<path d="M252.915 137.923C253.164 139.405 253.33 140.899 253.411 142.4C253.513 143.892 253.54 145.384 253.553 146.876C253.542 148.368 253.515 149.861 253.413 151.353C253.332 152.853 253.166 154.348 252.915 155.83C252.664 154.348 252.498 152.853 252.417 151.353C252.315 149.861 252.288 148.368 252.277 146.876C252.29 145.384 252.317 143.892 252.419 142.4C252.5 140.899 252.666 139.405 252.915 137.923V137.923Z" fill="black"/>
<path d="M257.724 119.183C257.006 119.183 256.575 119.148 256.554 119.146L256.63 118.298C256.739 118.305 267.788 119.204 272.505 111.317C273.748 109.153 274.384 106.693 274.345 104.198V101.156H275.197V104.198C275.236 106.847 274.558 109.457 273.235 111.753C269.185 118.528 260.807 119.183 257.724 119.183Z" fill="black"/>
<path d="M269.537 118.901C269.868 118.889 270.181 118.75 270.411 118.512C270.642 118.274 270.77 117.955 270.77 117.624C270.77 117.293 270.642 116.975 270.411 116.737C270.181 116.499 269.868 116.359 269.537 116.348C269.206 116.359 268.892 116.499 268.662 116.737C268.432 116.975 268.304 117.293 268.304 117.624C268.304 117.955 268.432 118.274 268.662 118.512C268.892 118.75 269.206 118.889 269.537 118.901V118.901Z" fill="black"/>
<path d="M273.06 122.578C273.391 122.566 273.705 122.427 273.935 122.189C274.165 121.95 274.294 121.632 274.294 121.301C274.294 120.97 274.165 120.652 273.935 120.414C273.705 120.175 273.391 120.036 273.06 120.024C272.729 120.036 272.416 120.175 272.186 120.414C271.956 120.652 271.827 120.97 271.827 121.301C271.827 121.632 271.956 121.95 272.186 122.189C272.416 122.427 272.729 122.566 273.06 122.578V122.578Z" fill="black"/>
<path d="M277.273 126.178C277.604 126.166 277.918 126.027 278.148 125.789C278.378 125.55 278.507 125.232 278.507 124.901C278.507 124.57 278.378 124.252 278.148 124.014C277.918 123.775 277.604 123.636 277.273 123.625C276.943 123.636 276.629 123.775 276.399 124.014C276.169 124.252 276.04 124.57 276.04 124.901C276.04 125.232 276.169 125.55 276.399 125.789C276.629 126.027 276.943 126.166 277.273 126.178V126.178Z" fill="black"/>
<path d="M282.252 130.927C282.583 130.915 282.897 130.776 283.127 130.538C283.357 130.3 283.485 129.981 283.485 129.65C283.485 129.319 283.357 129.001 283.127 128.763C282.897 128.525 282.583 128.385 282.252 128.374C281.921 128.385 281.608 128.525 281.378 128.763C281.148 129.001 281.019 129.319 281.019 129.65C281.019 129.981 281.148 130.3 281.378 130.538C281.608 130.776 281.921 130.915 282.252 130.927V130.927Z" fill="black"/>
<path d="M288.457 134.374C288.788 134.362 289.101 134.223 289.331 133.985C289.561 133.747 289.69 133.428 289.69 133.097C289.69 132.766 289.561 132.448 289.331 132.21C289.101 131.972 288.788 131.832 288.457 131.821C288.126 131.832 287.812 131.972 287.582 132.21C287.352 132.448 287.224 132.766 287.224 133.097C287.224 133.428 287.352 133.747 287.582 133.985C287.812 134.223 288.126 134.362 288.457 134.374V134.374Z" fill="black"/>
<path d="M291.827 130.161C292.158 130.149 292.472 130.01 292.702 129.772C292.932 129.534 293.06 129.215 293.06 128.884C293.06 128.553 292.932 128.235 292.702 127.997C292.472 127.759 292.158 127.619 291.827 127.608C291.496 127.619 291.183 127.759 290.953 127.997C290.723 128.235 290.594 128.553 290.594 128.884C290.594 129.215 290.723 129.534 290.953 129.772C291.183 130.01 291.496 130.149 291.827 130.161V130.161Z" fill="black"/>
<path d="M295.351 124.876C295.682 124.864 295.995 124.725 296.225 124.486C296.455 124.248 296.584 123.93 296.584 123.599C296.584 123.268 296.455 122.95 296.225 122.711C295.995 122.473 295.682 122.334 295.351 122.322C295.02 122.334 294.706 122.473 294.476 122.711C294.246 122.95 294.117 123.268 294.117 123.599C294.117 123.93 294.246 124.248 294.476 124.486C294.706 124.725 295.02 124.864 295.351 124.876V124.876Z" fill="black"/>
<path d="M298.491 118.978C298.822 118.966 299.136 118.827 299.366 118.588C299.596 118.35 299.724 118.032 299.724 117.701C299.724 117.37 299.596 117.052 299.366 116.813C299.136 116.575 298.822 116.436 298.491 116.424C298.16 116.436 297.847 116.575 297.617 116.813C297.387 117.052 297.258 117.37 297.258 117.701C297.258 118.032 297.387 118.35 297.617 118.588C297.847 118.827 298.16 118.966 298.491 118.978V118.978Z" fill="black"/>
<path d="M273.75 80.7805C274.868 80.3819 276.037 80.1456 277.222 80.079C278.49 79.9093 279.776 80.22 280.827 80.9498C281.619 81.9265 282.11 83.1115 282.241 84.3615C282.455 85.535 282.433 86.7393 282.176 87.9041C282.097 86.7524 281.901 85.6116 281.592 84.4993C281.447 83.9556 281.266 83.4224 281.05 82.9033C280.943 82.6514 280.823 82.4051 280.691 82.1653L280.476 81.8268C280.402 81.7236 280.32 81.6626 280.249 81.5734C279.348 80.9956 278.293 80.7051 277.223 80.7404C276.085 80.6864 274.925 80.7262 273.75 80.7805Z" fill="black"/>
<path d="M281.716 89.6169C282.11 89.8926 282.466 90.2188 282.775 90.5872L283.176 91.0485C283.34 91.224 283.518 91.3856 283.708 91.5318C283.581 91.6118 283.437 91.6618 283.288 91.678C283.139 91.6943 282.988 91.6764 282.847 91.6256C282.573 91.5329 282.327 91.3687 282.137 91.1498C281.951 90.9457 281.816 90.7004 281.742 90.4339C281.669 90.1675 281.66 89.8875 281.716 89.6169Z" fill="black"/>
<path d="M287.614 89.436C287.832 89.7934 287.903 90.2209 287.814 90.6297C287.72 91.0782 287.453 91.4713 287.07 91.723C286.698 91.9459 286.267 92.0517 285.834 92.0266C285.434 91.9993 285.047 91.8723 284.708 91.6573C285.097 91.5247 285.444 91.4515 285.771 91.3656C286.064 91.2826 286.345 91.1627 286.608 91.0089C287.119 90.6202 287.475 90.0629 287.614 89.436V89.436Z" fill="black"/>
<path d="M287.308 81.0102C288.374 80.4174 289.57 80.0979 290.789 80.0804C292.022 80.0054 293.246 80.3316 294.278 81.0102C293.661 80.9784 293.094 80.9363 292.52 80.921C291.947 80.9201 291.382 80.9082 290.811 80.9306C289.667 80.954 288.528 81.0352 287.308 81.0102Z" fill="black"/>
<path d="M286.171 83.7678C286.471 84.1825 286.669 84.6629 286.746 85.169C286.824 85.6752 286.78 86.1926 286.618 86.6784C286.224 86.3179 285.971 85.8281 285.906 85.2974C285.813 84.7722 285.907 84.2314 286.171 83.7678Z" fill="black"/>
<path d="M277.35 85.9634C277.681 85.952 277.994 85.8125 278.224 85.5743C278.455 85.3361 278.583 85.0179 278.583 84.6868C278.583 84.3557 278.455 84.0375 278.224 83.7993C277.994 83.5611 277.681 83.4216 277.35 83.4102C277.019 83.4216 276.705 83.5611 276.475 83.7993C276.245 84.0375 276.117 84.3557 276.117 84.6868C276.117 85.0179 276.245 85.3361 276.475 85.5743C276.705 85.8125 277.019 85.952 277.35 85.9634V85.9634Z" fill="black"/>
<path d="M290.602 85.8104C290.933 85.7989 291.246 85.6594 291.476 85.4212C291.706 85.1831 291.835 84.8649 291.835 84.5337C291.835 84.2026 291.706 83.8844 291.476 83.6462C291.246 83.4081 290.933 83.2685 290.602 83.2571C290.271 83.2685 289.957 83.4081 289.727 83.6462C289.497 83.8844 289.368 84.2026 289.368 84.5337C289.368 84.8649 289.497 85.1831 289.727 85.4212C289.957 85.6594 290.271 85.7989 290.602 85.8104V85.8104Z" fill="black"/>
<path d="M280.031 96.7896C280.779 97.3269 281.578 97.7902 282.416 98.1727C283.212 98.5408 284.071 98.7526 284.947 98.7965C285.814 98.839 286.677 98.6589 287.455 98.2735C287.864 98.0866 288.257 97.8668 288.63 97.6162C289.011 97.3629 289.355 97.0544 289.759 96.7896C289.501 97.1911 289.214 97.5736 288.901 97.9344C288.564 98.2875 288.185 98.5974 287.772 98.8569C286.928 99.4165 285.927 99.693 284.915 99.6466C283.919 99.5952 282.952 99.2893 282.107 98.758C281.28 98.2603 280.572 97.5886 280.031 96.7896V96.7896Z" fill="black"/>
<path d="M297.291 83.3177C297.301 83.5189 297.301 83.7296 297.301 83.9308L297.1 83.3081C297.1 83.3081 297.167 83.3081 297.291 83.3177Z" fill="white"/>
<path d="M273.061 77.4813C273.667 77.3973 274.276 77.3295 274.879 77.2324C275.474 77.0899 276.081 77.0017 276.662 76.8153C277.835 76.4848 278.968 76.0248 280.039 75.4436C281.095 74.8483 282.066 74.1146 282.927 73.262C283.783 72.4236 284.487 71.4427 285.006 70.3631L285.202 69.9333L285.421 70.349C285.987 71.4121 286.674 72.4068 287.467 73.3134C288.242 74.2254 289.157 75.007 290.18 75.6282C291.192 76.222 292.342 76.5433 293.515 76.5609C294.687 76.5283 295.834 76.2178 296.862 75.6551L297.354 75.4324L297.39 75.9459C297.602 78.9875 297.708 82.0249 297.684 85.0733C297.731 88.1395 297.432 91.2013 296.791 94.2001C296.153 97.2347 294.903 100.107 293.117 102.643C292.191 103.921 291.009 104.992 289.646 105.788C288.25 106.558 286.672 106.938 285.078 106.888C283.513 106.824 281.973 106.475 280.533 105.857C279.075 105.274 277.757 104.391 276.662 103.265C274.59 100.947 273.203 98.0988 272.655 95.0383C272.046 92.0437 271.818 88.984 271.977 85.9322C272.093 82.8944 272.455 79.871 273.061 76.8919C272.554 79.8812 272.291 82.9066 272.273 85.9385C272.223 88.9579 272.521 91.973 273.162 94.9239C273.74 97.8617 275.12 100.582 277.151 102.782C278.197 103.818 279.441 104.632 280.809 105.176C282.167 105.75 283.619 106.072 285.093 106.126C286.549 106.164 287.988 105.809 289.259 105.099C290.519 104.349 291.61 103.347 292.462 102.154C294.152 99.6926 295.349 96.9262 295.984 94.0086C296.629 91.0714 296.94 88.0707 296.91 85.0637C296.952 82.0445 296.865 79.012 296.672 75.9995L297.2 76.29C296.062 76.8893 294.797 77.2067 293.511 77.2153C292.227 77.175 290.976 76.8023 289.88 76.1337C288.817 75.4628 287.869 74.625 287.072 73.6526C286.268 72.7 285.577 71.6578 285.012 70.5467L285.427 70.5329C284.87 71.6597 284.107 72.6721 283.177 73.5176C282.268 74.3612 281.251 75.0795 280.151 75.6533C279.05 76.2061 277.89 76.6345 276.693 76.9304C276.102 77.0986 275.488 77.1679 274.889 77.2911C274.281 77.369 273.669 77.4172 273.061 77.4813Z" fill="black"/>
<path d="M301.262 419.641C302.752 424.991 303.617 430.497 303.839 436.047C303.978 438.836 303.904 441.632 303.618 444.41C303.331 447.206 302.813 449.973 302.069 452.684L302.092 452.283C302.464 453.691 303.077 455.023 303.905 456.221C304.719 457.429 305.756 458.47 306.96 459.289C307.252 459.501 307.561 459.69 307.882 459.854C308.188 460.045 308.512 460.208 308.848 460.339L309.849 460.754L310.901 461.047L311.424 461.198L311.967 461.285L313.052 461.459C313.784 461.533 314.53 461.533 315.266 461.578L315.596 461.599L315.817 461.723C317.422 462.624 318.969 463.553 320.503 464.601C321.303 465.136 322.062 465.73 322.773 466.38L324.706 468.275L324.621 468.198L327.863 470.817C328.4 471.243 328.957 471.684 329.472 472.057C329.993 472.364 330.541 472.623 331.11 472.828C333.666 473.884 336.271 474.906 338.863 475.92L338.994 475.972L339.151 476.08C340.58 477.059 342.139 477.832 343.784 478.376C345.331 478.932 347.003 479.041 348.609 478.691C350.137 478.263 351.447 477.272 352.274 475.917C353.193 474.453 353.852 472.841 354.224 471.153L354.621 472.359L348.691 467.251L348.819 467.345L343.03 463.617L342.974 463.581L342.942 463.555L335.381 457.453L335.439 457.495C333.865 456.333 332.408 455.022 331.087 453.579C329.772 452.155 328.592 450.613 327.561 448.971C326.518 447.336 325.669 445.583 325.033 443.75C324.409 441.916 324.009 440.014 323.842 438.085L323.838 438.055L323.839 438.031L324.133 430.641C324.22 428.178 324.362 425.716 324.478 423.253C324.536 425.718 324.621 428.183 324.65 430.647L324.771 438.042L324.769 437.988C325.031 439.815 325.513 441.603 326.205 443.315C326.878 445.028 327.742 446.66 328.781 448.179C329.814 449.704 330.985 451.131 332.279 452.441C333.557 453.742 334.956 454.92 336.457 455.957L336.483 455.975L336.515 456L344.274 461.847L344.186 461.785L350.04 465.411L350.099 465.447L350.168 465.505L356.187 470.507L356.753 470.978L356.584 471.714C356.17 473.691 355.407 475.578 354.33 477.287C353.174 479.151 351.362 480.515 349.251 481.111C347.188 481.595 345.03 481.486 343.026 480.796C341.106 480.187 339.292 479.286 337.647 478.124L337.935 478.283C335.333 477.246 332.744 476.215 330.145 475.123L329.162 474.698C328.975 474.61 328.853 474.564 328.614 474.44C328.407 474.333 328.211 474.209 328.026 474.068C327.413 473.618 326.879 473.186 326.324 472.743L323.07 470.073L323.024 470.035L322.985 469.996L321.104 468.086C320.495 467.516 319.845 466.992 319.16 466.517C317.746 465.512 316.228 464.563 314.716 463.679L315.266 463.823C314.438 463.765 313.609 463.746 312.784 463.646L311.548 463.427L310.931 463.314L310.326 463.132L309.119 462.756L307.962 462.232C307.574 462.062 307.201 461.859 306.848 461.624C306.478 461.416 306.125 461.182 305.789 460.923C304.424 459.923 303.26 458.673 302.361 457.239C301.445 455.817 300.792 454.243 300.431 452.591L300.39 452.402L300.454 452.19C301.261 449.594 301.852 446.936 302.221 444.242C302.579 441.53 302.777 438.798 302.812 436.062C302.842 433.312 302.726 430.563 302.463 427.826C302.204 425.078 301.803 422.346 301.262 419.641V419.641Z" fill="black"/>
<path d="M301.262 452.437C301.262 452.437 296.689 453.356 297.092 454.888C297.495 456.42 296.576 470.361 300.559 471.893C304.542 473.425 309.445 472.353 312.202 472.812C315.145 473.281 317.902 474.554 320.169 476.489C323.079 478.787 334.416 485.987 344.527 485.221C354.638 484.455 361.379 482.923 361.991 475.723C362.604 468.523 356.17 462.854 346.978 461.629C346.978 461.629 346.59 454.152 329.549 450.537C329.549 450.537 320.169 448.913 315.266 462.701L322.007 467.297C322.007 467.297 324.611 453.816 335.948 456.726L343.608 462.701C337.881 464.827 332.847 468.483 329.054 473.272L338.399 477.102C338.399 477.102 342.517 467.757 349.429 466.378L355.404 471.433C355.404 471.433 353.311 483.345 342.791 479.381L301.262 452.437Z" fill="#6A45A5"/>
<path d="M258.73 431.6C258.781 431.601 261.387 403.816 261.392 403.865C261.609 406.19 259.296 436.338 259.675 438.632C260.006 440.914 260.523 443.165 261.219 445.363C261.399 445.892 261.612 446.409 261.857 446.912C261.976 447.164 262.109 447.385 262.248 447.629C262.398 447.896 262.563 448.158 262.696 448.433C263.257 449.516 263.697 450.658 264.009 451.837C264.66 454.186 264.897 456.629 264.711 459.059C264.621 460.298 264.374 461.521 263.976 462.699C263.58 463.948 262.891 465.085 261.965 466.014C261.474 466.497 260.9 466.887 260.269 467.164C259.954 467.306 259.627 467.418 259.291 467.497L258.398 467.673C257.317 467.942 256.265 468.318 255.259 468.796C252.998 469.629 250.633 470.143 248.231 470.321C245.872 470.555 243.52 470.624 241.173 470.633C236.479 470.64 231.804 470.48 227.126 470.341C224.788 470.268 222.451 470.172 220.115 470.054C217.776 469.978 215.44 469.862 213.102 469.755C203.75 469.344 194.418 468.603 185.104 467.722L185.067 467.718C184.853 467.698 184.653 467.605 184.5 467.454C184.347 467.304 184.251 467.105 184.227 466.892C184.196 466.645 184.199 466.395 184.234 466.149C184.257 465.95 184.295 465.753 184.346 465.559C184.441 465.196 184.572 464.845 184.738 464.509C184.886 464.184 185.063 463.872 185.266 463.578C185.45 463.285 185.656 463.005 185.882 462.743C186.735 461.718 187.721 460.813 188.814 460.05C190.922 458.586 193.18 457.351 195.55 456.368C196.724 455.892 197.902 455.431 199.092 455.013C200.283 454.623 201.488 454.195 202.668 453.837C205.035 453.092 207.408 452.372 209.758 451.59C214.464 450.121 219.042 448.266 223.444 446.045C225.608 444.925 227.577 443.461 229.274 441.712C233.587 438.503 237.671 410.31 237.769 407.831C238.052 407.765 238.342 407.729 238.632 407.726C238.684 407.728 232.279 435.098 232.282 435.148C232.371 437.72 231.51 440.234 229.864 442.212C228.218 444.157 226.25 445.804 224.044 447.081C219.689 449.585 215.102 451.661 210.347 453.279C207.999 454.133 205.648 454.966 203.282 455.745C202.087 456.127 200.956 456.552 199.79 456.953C198.641 457.376 197.509 457.841 196.386 458.315C194.161 459.24 192.038 460.395 190.052 461.759C189.098 462.412 188.229 463.182 187.466 464.05C187.281 464.254 187.113 464.472 186.963 464.703C186.806 464.916 186.67 465.144 186.557 465.383C186.441 465.602 186.349 465.832 186.28 466.07C186.25 466.175 186.226 466.283 186.21 466.392C186.19 466.474 186.196 466.636 186.185 466.579L185.308 465.749C194.593 466.779 203.883 467.762 213.177 468.699C215.503 468.907 217.829 469.125 220.158 469.303C222.488 469.468 224.819 469.595 227.151 469.709C231.812 469.955 236.483 469.953 241.143 469.704C243.467 469.571 245.787 469.371 248.068 469.024C250.323 468.732 252.529 468.14 254.627 467.265C255.719 466.712 256.864 466.272 258.046 465.952L258.518 465.862L258.872 465.786C259.104 465.73 259.33 465.651 259.547 465.551C259.989 465.355 260.389 465.078 260.729 464.735C262.123 463.104 262.927 461.05 263.009 458.905C263.211 456.666 263.046 454.409 262.519 452.223C262.257 451.134 261.895 450.072 261.437 449.051C261.329 448.793 261.192 448.554 261.069 448.304C260.931 448.033 260.78 447.744 260.664 447.461C260.425 446.899 260.221 446.323 260.054 445.735C259.432 443.445 259.034 441.1 258.864 438.732C258.679 436.387 261.335 406.212 261.392 403.865" fill="#020202"/>
<path d="M240.896 471.059C236.782 471.059 232.626 470.933 228.603 470.812L227.113 470.767C224.772 470.693 222.432 470.597 220.093 470.479C218.165 470.417 216.23 470.326 214.295 470.236L213.082 470.179C204.781 469.816 195.877 469.17 185.064 468.145C184.747 468.12 184.448 467.987 184.218 467.767C183.989 467.547 183.842 467.254 183.804 466.938C183.772 466.685 183.771 466.429 183.804 466.175C183.818 465.995 183.847 465.816 183.891 465.64L183.929 465.476C184.032 465.073 184.178 464.681 184.363 464.309C184.517 463.97 184.702 463.645 184.914 463.339C185.091 463.055 185.288 462.786 185.505 462.532C186.394 461.455 187.425 460.503 188.569 459.702C190.699 458.217 192.983 456.969 195.382 455.977C196.364 455.579 197.648 455.068 198.952 454.612C199.377 454.472 199.796 454.331 200.214 454.19C200.994 453.927 201.775 453.664 202.544 453.43L204.573 452.795C206.262 452.269 207.948 451.744 209.623 451.186C214.306 449.722 218.861 447.876 223.243 445.669C225.369 444.576 227.301 443.142 228.962 441.423C229.944 440.691 230.934 438.531 231.872 435.635C231.872 435.48 231.867 435.327 231.858 435.173C231.852 435.097 231.853 435.097 233.699 427.172C234.412 424.111 235.272 420.417 236.05 417.07C236.822 412.515 237.303 408.854 237.344 407.814C237.364 407.407 237.759 407.369 238.141 407.333C238.38 407.31 238.625 407.301 238.654 407.301L238.851 407.311L238.97 407.467C239.087 407.619 239.111 407.651 236.872 417.294C235.901 423.555 234.514 429.744 232.722 435.821C232.635 438.258 231.747 440.598 230.195 442.479C228.52 444.461 226.515 446.139 224.27 447.441C219.891 449.959 215.278 452.048 210.496 453.678C207.66 454.709 205.477 455.471 203.415 456.149C202.652 456.393 201.919 456.653 201.185 456.913C200.768 457.062 200.351 457.21 199.929 457.355C198.692 457.812 197.474 458.318 196.552 458.707C194.353 459.616 192.257 460.756 190.299 462.106C189.373 462.739 188.53 463.484 187.789 464.326L187.726 464.401C187.579 464.563 187.447 464.737 187.329 464.921C187.194 465.105 187.074 465.3 186.971 465.505C195.082 466.399 203.689 467.308 213.221 468.276L214.443 468.385C216.358 468.559 218.273 468.732 220.19 468.879C222.737 469.059 225.26 469.19 227.172 469.284C231.818 469.529 236.473 469.528 241.118 469.279C243.789 469.126 245.976 468.911 248.004 468.602C250.222 468.322 252.392 467.741 254.453 466.876C254.707 466.769 254.958 466.654 255.216 466.536C256.089 466.1 257.009 465.764 257.958 465.535L258.782 465.37C258.981 465.321 259.175 465.253 259.361 465.168C259.761 464.992 260.124 464.742 260.43 464.43C261.756 462.872 262.516 460.911 262.585 458.866C262.781 456.673 262.619 454.463 262.106 452.322C261.85 451.259 261.496 450.223 261.049 449.225C260.977 449.054 260.897 448.9 260.818 448.747L260.635 448.389C260.508 448.14 260.375 447.879 260.27 447.621C260.026 447.045 259.817 446.454 259.645 445.852C259.015 443.535 258.612 441.162 258.44 438.766C258.39 438.125 258.539 435.542 258.789 432.025C258.767 432.027 258.745 432.027 258.723 432.026L258.73 431.6L258.314 431.518C258.392 431.038 259.697 417.237 260.399 409.823C260.664 407.01 260.813 405.437 260.93 404.557C260.951 404.231 260.964 403.992 260.967 403.855L261.046 403.857C261.141 403.442 261.234 403.439 261.389 403.439H261.78L261.816 403.826C261.918 404.916 261.508 411.48 261.035 419.082C260.502 427.649 259.896 437.36 260.094 438.563C260.423 440.821 260.933 443.048 261.622 445.223C261.796 445.736 262.002 446.237 262.239 446.724C262.333 446.922 262.433 447.095 262.537 447.277L262.755 447.656C262.868 447.851 262.981 448.045 263.079 448.246C263.652 449.354 264.101 450.522 264.42 451.728C265.084 454.124 265.326 456.617 265.135 459.095C265.044 460.37 264.79 461.628 264.379 462.838C263.964 464.154 263.236 465.349 262.258 466.322C261.731 466.841 261.113 467.26 260.436 467.556C260.101 467.706 259.753 467.824 259.396 467.91L258.48 468.09C257.707 468.26 256.955 468.515 256.239 468.851C255.972 468.964 255.699 469.079 255.416 469.191C253.12 470.041 250.716 470.564 248.274 470.744C246.2 470.95 244.01 471.047 241.174 471.059H240.896ZM239.71 470.204C240.199 470.207 240.691 470.208 241.172 470.207C243.98 470.196 246.144 470.101 248.188 469.897C250.551 469.724 252.877 469.22 255.1 468.4C255.379 468.29 255.647 468.177 255.908 468.067C256.681 467.705 257.492 467.432 258.326 467.253L259.21 467.08C259.512 467.008 259.806 466.907 260.089 466.779C260.677 466.522 261.213 466.159 261.669 465.708C262.549 464.827 263.203 463.746 263.574 462.558C263.962 461.416 264.201 460.228 264.287 459.025C264.469 456.644 264.236 454.249 263.598 451.947C263.294 450.798 262.865 449.685 262.32 448.629C262.225 448.436 262.122 448.261 262.02 448.085L261.798 447.7C261.683 447.499 261.573 447.306 261.472 447.093C261.22 446.576 261.001 446.044 260.817 445.5C260.146 443.407 259.646 441.263 259.322 439.089C259.499 441.297 259.882 443.483 260.464 445.62C260.626 446.189 260.824 446.748 261.055 447.293C261.155 447.534 261.277 447.774 261.393 448.003L261.573 448.355C261.664 448.53 261.753 448.704 261.83 448.887C262.297 449.93 262.666 451.013 262.933 452.123C263.469 454.355 263.637 456.659 263.433 458.945C263.337 461.187 262.491 463.333 261.029 465.036C260.651 465.417 260.206 465.725 259.715 465.943C259.479 466.05 259.233 466.136 258.981 466.197L258.125 466.37C257.241 466.586 256.383 466.902 255.57 467.31C255.304 467.431 255.046 467.549 254.794 467.657C252.665 468.552 250.424 469.153 248.132 469.444C246.077 469.757 243.865 469.974 241.168 470.129C240.687 470.157 240.201 470.182 239.71 470.204V470.204ZM184.731 465.788L184.72 465.837C184.69 465.949 184.669 466.063 184.659 466.178C184.626 466.399 184.623 466.622 184.65 466.843C184.663 466.96 184.716 467.068 184.799 467.15C184.882 467.232 184.991 467.283 185.107 467.294C195.943 468.32 204.832 468.966 213.121 469.33L214.334 469.386C215.517 469.441 216.699 469.496 217.882 469.545C216.71 469.445 215.538 469.341 214.367 469.233L213.139 469.123C203.514 468.145 194.834 467.229 186.655 466.326C186.647 466.352 186.64 466.379 186.636 466.407L186.597 466.939L186.218 467.016L185.843 467.041L185.795 466.795L184.731 465.788ZM184.88 465.273L185.355 465.326C185.593 465.352 185.831 465.379 186.07 465.405C186.105 465.324 186.145 465.245 186.189 465.169C186.309 464.917 186.452 464.678 186.618 464.454C186.754 464.241 186.907 464.039 187.076 463.851L187.14 463.775C187.927 462.88 188.823 462.085 189.807 461.411C191.814 460.026 193.963 458.857 196.217 457.925C197.151 457.53 198.381 457.019 199.643 456.553C200.071 456.406 200.485 456.259 200.901 456.111C201.642 455.849 202.384 455.585 203.153 455.34C205.202 454.665 207.377 453.906 210.202 452.88C214.93 451.269 219.491 449.205 223.823 446.717C225.666 445.628 227.355 444.295 228.843 442.755C227.281 444.201 225.534 445.433 223.648 446.418C219.223 448.649 214.623 450.514 209.893 451.994C208.212 452.553 206.52 453.08 204.826 453.608L202.796 454.243C202.03 454.475 201.258 454.736 200.486 454.996C200.065 455.138 199.644 455.28 199.225 455.417C197.947 455.865 196.674 456.372 195.71 456.763C193.369 457.73 191.139 458.948 189.061 460.397C187.998 461.138 187.039 462.018 186.209 463.014C185.998 463.26 185.805 463.521 185.632 463.795C185.437 464.075 185.268 464.373 185.127 464.683C185.028 464.873 184.946 465.07 184.88 465.273V465.273Z" fill="black"/>
<path d="M251.874 444.592C252.262 445.351 252.464 446.191 252.462 447.044C252.475 447.921 252.281 448.789 251.898 449.578C251.512 450.375 250.921 451.055 250.185 451.547C249.482 452.032 248.673 452.341 247.826 452.449C248.487 451.999 249.112 451.497 249.694 450.948C250.238 450.431 250.684 449.818 251.008 449.141C251.644 447.712 251.941 446.155 251.874 444.592V444.592Z" fill="#020202"/>
<path d="M246.234 453.119L248.043 451.759C248.522 451.43 248.971 451.061 249.386 450.655C249.899 450.169 250.319 449.593 250.624 448.955C251.239 447.585 251.522 446.089 251.449 444.589L251.458 442.916L252.25 444.39C252.671 445.209 252.89 446.116 252.888 447.036C252.901 447.98 252.693 448.914 252.282 449.764C251.862 450.632 251.217 451.372 250.413 451.906C249.661 452.424 248.796 452.755 247.89 452.87L246.234 453.119ZM252.024 447.508C251.891 448.141 251.677 448.754 251.388 449.333C251.107 449.918 250.741 450.458 250.303 450.936C250.812 450.511 251.226 449.983 251.518 449.387C251.803 448.798 251.974 448.16 252.024 447.508V447.508Z" fill="black"/>
<path d="M261.514 465.016C261.514 465.016 267.153 466.973 264.037 477.212C264.037 477.212 264.494 481.021 250.922 480.307L182.587 480.396C182.587 480.396 177.529 469.216 188.034 467.023L205.189 468.611C205.189 468.611 200.921 458.402 202.111 455.068C203.939 452.086 206.705 449.795 209.975 448.552C213.245 447.31 216.835 447.187 220.182 448.203C220.182 448.203 219.476 464.584 232.104 470.184C232.104 470.184 250.678 469.249 261.514 465.016Z" fill="#6A45A5"/>
<path d="M182.313 480.822L182.2 480.572C182.096 480.343 179.691 474.926 181.808 470.759C182.89 468.629 184.955 467.231 187.947 466.607L188.009 466.594L188.073 466.599L204.532 468.123C203.601 465.782 200.645 457.91 201.711 454.925C203.589 451.855 206.429 449.491 209.789 448.201C213.149 446.91 216.841 446.766 220.292 447.791L220.622 447.879L220.607 448.22C220.6 448.381 220.07 464.298 232.184 469.753C233.677 469.67 251.122 468.618 261.36 464.619L261.506 464.562L261.653 464.614C261.899 464.699 267.619 466.817 264.464 477.27C264.431 477.774 264.21 478.249 263.846 478.599C262.701 479.823 259.53 481.188 250.9 480.731L182.313 480.822ZM188.059 467.453C185.367 468.028 183.519 469.27 182.567 471.145C180.875 474.474 182.437 478.882 182.871 479.971L250.921 479.881C259.556 480.334 262.299 478.943 263.169 478.074C263.294 477.973 263.398 477.848 263.474 477.706C263.551 477.565 263.598 477.409 263.614 477.249L263.61 477.174L263.63 477.088C266.341 468.181 262.335 465.851 261.509 465.475C250.711 469.631 232.311 470.599 232.126 470.609L232.025 470.614L231.932 470.573C220.216 465.377 219.745 450.956 219.752 448.531C216.531 447.638 213.108 447.812 209.995 449.028C206.881 450.244 204.246 452.436 202.483 455.275C201.39 458.352 205.54 468.346 205.582 468.447L205.854 469.1L188.059 467.453Z" fill="black"/>
<path d="M225.849 444.592C225.849 444.592 224.318 462.428 238.208 470.633L248.231 470.321C248.231 470.321 234.936 462.339 230.853 440.766C230.853 440.766 228.044 444.866 225.849 444.592Z" fill="#6A45A5"/>
<path d="M238.098 471.062L237.992 471C224.033 462.754 225.409 444.737 225.425 444.555L225.463 444.115L225.903 444.17C227.496 444.355 229.762 441.607 230.502 440.525L231.081 439.68L231.271 440.686C235.268 461.801 248.318 469.878 248.449 469.956L249.686 470.701L238.098 471.062ZM226.252 445.023C226.14 447.667 226.066 462.878 238.319 470.204L246.938 469.936C243.721 467.518 234.174 459.065 230.622 441.791C229.717 442.937 227.944 444.885 226.252 445.023Z" fill="#6A45A5"/>
<path d="M300.52 387.05C301.066 398.059 301.664 409.068 302.312 420.076C300.128 419.27 298.075 418.147 296.218 416.742L292.635 290.731L293.057 292.407C293.344 293.749 293.641 295.09 293.861 296.451C294.321 299.162 294.685 301.893 294.992 304.623C295.634 310.085 296.123 315.575 296.573 321.065C297.426 332.045 298.125 343.034 298.738 354.033C299.38 365.033 299.936 376.041 300.52 387.05Z" fill="#F20201"/>
<path d="M292.596 258.327C292.587 259.994 292.52 261.661 292.501 263.329C292.539 266.672 292.194 269.997 292.137 273.35C292.137 273.35 292.137 279.703 291.868 288.46C291.523 299.938 290.719 315.565 288.869 326.459C285.593 345.659 285.19 416.33 285.19 416.33C252.509 426.955 226.774 419.195 226.774 419.195C227.991 402.849 237.189 293.567 237.189 293.567C235.253 264.057 240.111 233.646 243.464 217.004C245.734 216.446 247.938 215.646 250.037 214.618C252.145 213.604 254.17 212.425 256.092 211.092C258.005 209.729 259.786 208.19 261.41 206.493C263.03 204.783 264.377 202.835 265.405 200.716C263.748 202.373 262.119 203.935 260.385 205.401C258.622 206.828 256.849 208.227 254.981 209.521C251.273 212.136 247.402 214.512 243.464 217.004C245.084 208.994 246.348 204.174 246.348 204.174C254.086 203.249 261.733 201.679 269.209 199.48C274.907 197.802 280.491 195.76 285.928 193.367C286.359 193.434 286.79 193.511 287.221 193.568C287.72 196.883 288.247 200.179 288.659 203.504C289.109 206.809 289.502 210.124 289.904 213.43C290.661 220.06 291.293 226.7 291.744 233.349C291.907 235.457 292.031 237.574 292.137 239.682C292.111 239.674 292.085 239.665 292.06 239.654C291.46 239.426 290.837 239.269 290.201 239.184C289.003 239 287.791 238.929 286.58 238.973C285.396 239.005 284.216 239.104 283.044 239.27C281.875 239.425 280.717 239.652 279.576 239.95C281.923 240.094 284.251 240.18 286.532 240.401C287.652 240.5 288.765 240.667 289.866 240.899C290.715 241.052 291.524 241.378 292.242 241.857C292.405 245.68 292.513 249.503 292.568 253.326L292.596 258.327Z" fill="#F20201"/>
<path d="M320.545 200.907C319.141 199.398 317.901 197.744 316.846 195.973C321.159 196.023 325.468 195.667 329.714 194.909C332.359 199.143 334.322 203.767 335.53 208.611C334.83 208.467 334.14 208.342 333.46 208.17L331.975 207.758C331.726 207.681 331.477 207.643 331.237 207.557L330.528 207.298C330.049 207.116 329.57 206.963 329.101 206.8L327.74 206.167C327.279 205.975 326.834 205.748 326.408 205.487C325.969 205.261 325.543 205.008 325.134 204.73C323.443 203.664 321.899 202.378 320.545 200.907V200.907Z" fill="#F20201"/>
<path d="M351.368 417.556C326.121 426.419 310.236 423.276 302.312 420.086V420.076C302.417 409.039 302.315 398.011 302.005 386.992C301.728 375.964 301.258 364.946 300.654 353.928C300.319 348.419 299.965 342.919 299.553 337.41C299.102 331.91 298.652 326.411 298.058 320.921C297.474 315.431 296.793 309.95 295.921 304.489C295.471 301.768 294.963 299.047 294.36 296.355C293.913 294.265 293.331 292.208 292.616 290.194L292.137 273.35C293.229 266.73 293.873 260.043 294.063 253.335C294.158 251.659 294.149 249.982 294.149 248.305C294.139 246.628 294.187 244.952 294.12 243.275L294.072 241.972C295.009 241.285 295.985 240.651 296.994 240.075C298.131 239.433 299.305 238.86 300.511 238.36C302.959 237.323 305.569 236.72 308.224 236.578C306.883 236.229 305.496 236.09 304.113 236.166C302.716 236.242 301.334 236.484 299.993 236.884C298.657 237.288 297.362 237.814 296.123 238.456C295.394 238.849 294.685 239.251 293.996 239.701L293.948 238.245C293.871 236.568 293.756 234.892 293.651 233.215C293.172 226.527 292.443 219.849 291.38 213.229C290.359 206.603 288.971 200.04 287.222 193.568C297.012 195.194 306.922 195.998 316.847 195.973C317.236 198.098 318.104 200.107 319.386 201.846C320.65 203.636 322.251 205.163 324.099 206.34C325.941 207.517 327.989 208.333 330.136 208.745C331.19 208.958 332.261 209.076 333.336 209.099C334.105 209.104 334.873 209.056 335.635 208.956C343.243 236.434 342.524 284.522 343.195 306.846C344.019 333.807 351.368 417.556 351.368 417.556Z" fill="#F20201"/>
<path d="M336.526 208.86C336.229 208.898 335.932 208.936 335.635 208.956C335.597 208.84 335.568 208.725 335.53 208.62C335.856 208.687 336.191 208.764 336.526 208.86Z" fill="white"/>
<path d="M292.635 290.731L292.549 290.405L291.868 288.46C292.147 289.025 292.396 289.604 292.616 290.194L292.635 290.731Z" fill="white"/>
<path d="M284.028 80.2723C284.359 80.2608 284.673 80.1213 284.903 79.8832C285.133 79.645 285.261 79.3268 285.261 78.9956C285.261 78.6645 285.133 78.3463 284.903 78.1081C284.673 77.8699 284.359 77.7304 284.028 77.719C283.697 77.7304 283.383 77.8699 283.153 78.1081C282.923 78.3463 282.795 78.6645 282.795 78.9956C282.795 79.3268 282.923 79.645 283.153 79.8832C283.383 80.1213 283.697 80.2608 284.028 80.2723V80.2723Z" fill="#B21919"/>
<path d="M519.061 259.868H375.337V69.8103H519.061V259.868ZM378.202 257.003H516.196V72.6753H378.202V257.003Z" fill="black"/>
<path d="M440.096 140.027H390.886V86.4182H440.096V140.027ZM393.858 137.055H437.124V89.3899H393.858V137.055Z" fill="black"/>
<path d="M426.666 106.226L428.295 111.285C428.263 111.277 428.231 111.274 428.199 111.275C427.526 111.258 426.871 111.49 426.359 111.927C426.407 111.62 426.436 111.323 426.465 111.055C426.618 109.532 426.666 107.826 426.666 106.226Z" fill="#6A45A5"/>
<path d="M437.857 134.721L429.224 132.881C429.224 132.881 424.472 129.978 423.715 119.736V119.458C424.54 118.141 425.179 116.716 425.612 115.223C425.791 115.761 426.14 116.225 426.607 116.547C427.074 116.868 427.632 117.029 428.199 117.005C431.619 117.005 431.868 112.08 428.946 111.371C431.705 106.341 427.509 105.824 426.666 105.776C426.647 102.777 426.465 100.286 426.465 100.286C421.022 103.179 417.631 96.1467 417.631 96.1467C417.631 96.1467 415.724 100.87 408.538 101.416V100.976C407.837 104.692 407.67 108.489 408.04 112.253C407.81 111.966 407.523 111.731 407.196 111.565C406.868 111.398 406.51 111.302 406.143 111.285L407.925 105.766C407.925 105.766 402.483 105.805 405.463 111.314C402.224 111.735 402.358 117.005 405.894 117.005C406.496 117.03 407.088 116.847 407.57 116.485C408.052 116.124 408.394 115.607 408.538 115.022C408.825 116.181 409.253 117.301 409.812 118.356V121.403C409.844 123.327 409.354 125.224 408.394 126.893C404.715 133.044 396.217 132.268 396.217 132.268L391.704 131.77C391.704 131.77 402.77 101.627 404.572 98.7242C406.373 95.8211 416.174 87.0352 426.675 95.3612C426.675 95.3612 431.83 99.2798 437.857 134.721Z" fill="#6A45A5"/>
<path d="M397.06 132.612C396.523 132.612 396.201 132.585 396.184 132.584L396.242 131.949C396.32 131.956 404.589 132.629 408.119 126.726C409.049 125.107 409.525 123.267 409.496 121.4V119.124H410.132V121.4C410.161 123.382 409.654 125.335 408.665 127.053C405.634 132.122 399.366 132.612 397.06 132.612Z" fill="#6A45A5"/>
<path d="M405.898 132.4C406.146 132.392 406.38 132.287 406.552 132.109C406.724 131.931 406.821 131.693 406.821 131.445C406.821 131.197 406.724 130.959 406.552 130.781C406.38 130.603 406.146 130.499 405.898 130.49C405.65 130.499 405.416 130.603 405.244 130.781C405.072 130.959 404.975 131.197 404.975 131.445C404.975 131.693 405.072 131.931 405.244 132.109C405.416 132.287 405.65 132.392 405.898 132.4V132.4Z" fill="black"/>
<path d="M408.534 135.151C408.782 135.142 409.016 135.038 409.188 134.86C409.36 134.681 409.457 134.443 409.457 134.196C409.457 133.948 409.36 133.71 409.188 133.532C409.016 133.353 408.782 133.249 408.534 133.24C408.286 133.249 408.052 133.353 407.88 133.532C407.708 133.71 407.611 133.948 407.611 134.196C407.611 134.443 407.708 134.681 407.88 134.86C408.052 135.038 408.286 135.142 408.534 135.151Z" fill="black"/>
<path d="M411.686 137.844C411.933 137.835 412.168 137.731 412.34 137.553C412.512 137.375 412.608 137.137 412.608 136.889C412.608 136.641 412.512 136.403 412.34 136.225C412.168 136.047 411.933 135.942 411.686 135.934C411.438 135.942 411.204 136.047 411.032 136.225C410.859 136.403 410.763 136.641 410.763 136.889C410.763 137.137 410.859 137.375 411.032 137.553C411.204 137.731 411.438 137.835 411.686 137.844V137.844Z" fill="black"/>
<path d="M425.21 136.87C425.457 136.861 425.692 136.757 425.864 136.579C426.036 136.401 426.132 136.163 426.132 135.915C426.132 135.667 426.036 135.429 425.864 135.251C425.692 135.073 425.457 134.968 425.21 134.96C424.962 134.968 424.728 135.073 424.555 135.251C424.383 135.429 424.287 135.667 424.287 135.915C424.287 136.163 424.383 136.401 424.555 136.579C424.728 136.757 424.962 136.861 425.21 136.87Z" fill="black"/>
<path d="M427.559 132.458C427.807 132.449 428.042 132.345 428.214 132.166C428.386 131.988 428.482 131.75 428.482 131.502C428.482 131.255 428.386 131.017 428.214 130.838C428.042 130.66 427.807 130.556 427.559 130.547C427.312 130.556 427.077 130.66 426.905 130.838C426.733 131.017 426.637 131.255 426.637 131.502C426.637 131.75 426.733 131.988 426.905 132.166C427.077 132.345 427.312 132.449 427.559 132.458Z" fill="black"/>
<path d="M409.05 103.881C409.887 103.585 410.761 103.408 411.647 103.357C412.596 103.23 413.558 103.462 414.344 104.008C414.936 104.739 415.304 105.625 415.402 106.56C415.56 107.438 415.544 108.339 415.353 109.211C415.296 108.349 415.149 107.495 414.916 106.664C414.808 106.257 414.673 105.858 414.511 105.469C414.377 105.102 414.173 104.765 413.912 104.475C413.238 104.042 412.448 103.825 411.648 103.851C410.798 103.816 409.928 103.832 409.05 103.881Z" fill="black"/>
<path d="M415.009 110.492C415.304 110.699 415.57 110.943 415.802 111.218C416.006 111.48 416.241 111.717 416.499 111.925C416.404 111.984 416.297 112.021 416.186 112.033C416.074 112.045 415.961 112.032 415.856 111.995C415.65 111.926 415.467 111.803 415.324 111.639C415.185 111.486 415.084 111.303 415.029 111.104C414.974 110.904 414.968 110.695 415.009 110.492V110.492Z" fill="black"/>
<path d="M419.422 110.357C419.583 110.625 419.636 110.944 419.571 111.25C419.501 111.585 419.301 111.879 419.015 112.068C418.736 112.235 418.414 112.314 418.09 112.295C417.791 112.273 417.502 112.178 417.248 112.019C417.74 111.918 418.218 111.755 418.669 111.534C419.051 111.243 419.318 110.826 419.422 110.357V110.357Z" fill="black"/>
<path d="M419.193 104.053C419.99 103.61 420.885 103.371 421.797 103.358C422.72 103.302 423.635 103.546 424.408 104.053C423.545 103.988 422.679 103.969 421.814 103.994C420.957 104.012 420.106 104.071 419.193 104.053Z" fill="black"/>
<path d="M418.342 106.116C418.567 106.427 418.715 106.786 418.773 107.165C418.831 107.543 418.798 107.93 418.677 108.294C418.382 108.024 418.193 107.658 418.144 107.261C418.075 106.868 418.145 106.463 418.342 106.116Z" fill="black"/>
<path d="M411.743 107.759C411.991 107.75 412.225 107.646 412.398 107.468C412.57 107.29 412.666 107.052 412.666 106.804C412.666 106.556 412.57 106.318 412.398 106.14C412.225 105.962 411.991 105.857 411.743 105.849C411.496 105.857 411.261 105.962 411.089 106.14C410.917 106.318 410.821 106.556 410.821 106.804C410.821 107.052 410.917 107.29 411.089 107.468C411.261 107.646 411.496 107.75 411.743 107.759V107.759Z" fill="black"/>
<path d="M421.657 107.645C421.905 107.636 422.139 107.532 422.311 107.353C422.483 107.175 422.58 106.937 422.58 106.689C422.58 106.442 422.483 106.204 422.311 106.025C422.139 105.847 421.905 105.743 421.657 105.734C421.409 105.743 421.175 105.847 421.003 106.025C420.831 106.204 420.734 106.442 420.734 106.689C420.734 106.937 420.831 107.175 421.003 107.353C421.175 107.532 421.409 107.636 421.657 107.645Z" fill="black"/>
<path d="M413.749 115.858C414.307 116.262 414.905 116.609 415.533 116.893C416.128 117.168 416.771 117.327 417.426 117.36C418.075 117.391 418.721 117.257 419.302 116.968C419.918 116.666 420.496 116.293 421.026 115.858C420.83 116.156 420.616 116.442 420.384 116.715C420.133 116.979 419.849 117.211 419.54 117.405C418.908 117.824 418.16 118.03 417.403 117.996C416.671 117.941 415.962 117.72 415.329 117.35C414.695 116.979 414.155 116.469 413.749 115.858V115.858Z" fill="black"/>
<path d="M426.522 105.766C426.522 105.766 426.57 105.766 426.666 105.776V106.217L426.522 105.766Z" fill="white"/>
<path d="M408.534 101.413L409.894 101.227C410.339 101.12 410.794 101.054 411.229 100.915C412.106 100.668 412.953 100.324 413.755 99.8889C414.544 99.4435 415.271 98.8945 415.916 98.2566C416.556 97.6294 417.082 96.8955 417.471 96.0878L417.618 95.7664L417.781 96.0775C418.205 96.8728 418.719 97.6169 419.312 98.2952C419.891 98.9775 420.576 99.5622 421.341 100.027C422.099 100.471 422.959 100.711 423.837 100.724C424.713 100.7 425.571 100.468 426.34 100.047L426.708 99.8805L426.735 100.265C426.894 102.54 426.973 104.811 426.955 107.092C426.991 109.385 426.766 111.675 426.284 113.917C425.804 116.186 424.869 118.334 423.535 120.23C422.832 121.178 421.952 121.979 420.943 122.589C420.417 122.864 419.858 123.073 419.28 123.209C418.989 123.265 418.701 123.349 418.408 123.38L417.522 123.392L417.079 123.397L416.646 123.323L415.781 123.17C415.219 123.021 414.666 122.841 414.124 122.631C413.029 122.204 412.041 121.545 411.226 120.699C409.676 118.965 408.639 116.834 408.23 114.545C407.775 112.305 407.604 110.017 407.723 107.734C407.81 105.462 408.081 103.2 408.534 100.972C408.155 103.208 407.958 105.471 407.945 107.739C407.907 109.997 408.13 112.252 408.61 114.459C409.041 116.657 410.073 118.692 411.591 120.338C412.37 121.116 413.302 121.724 414.329 122.121C414.846 122.317 415.372 122.485 415.907 122.624L416.718 122.762L417.124 122.83L417.532 122.822L418.348 122.808C418.616 122.777 418.877 122.696 419.142 122.645C419.667 122.517 420.175 122.326 420.653 122.074C421.586 121.499 422.398 120.748 423.044 119.864C423.696 118.965 424.234 117.99 424.646 116.959C425.077 115.927 425.423 114.862 425.681 113.774C426.166 111.578 426.399 109.333 426.376 107.084C426.408 104.826 426.342 102.558 426.198 100.304L426.593 100.522C425.742 100.97 424.795 101.208 423.833 101.214C422.873 101.184 421.937 100.905 421.117 100.405C420.322 99.9031 419.612 99.2763 419.016 98.5487C418.415 97.8361 417.898 97.0565 417.475 96.2252L417.786 96.2149C417.369 97.0579 416.798 97.8153 416.102 98.4479C415.422 99.079 414.661 99.6164 413.839 100.046C413.015 100.459 412.147 100.78 411.252 101.001C410.81 101.127 410.35 101.179 409.902 101.271L408.534 101.413Z" fill="black"/>
<path d="M408.538 115.022C408.313 114.11 408.147 113.185 408.04 112.253L408.538 115.022Z" fill="white"/>
<path d="M416.739 103.501C416.987 103.493 417.221 103.388 417.393 103.21C417.565 103.032 417.662 102.794 417.662 102.546C417.662 102.298 417.565 102.06 417.393 101.882C417.221 101.704 416.987 101.6 416.739 101.591C416.491 101.6 416.257 101.704 416.085 101.882C415.913 102.06 415.816 102.298 415.816 102.546C415.816 102.794 415.913 103.032 416.085 103.21C416.257 103.388 416.491 103.493 416.739 103.501Z" fill="#B21919"/>
<path d="M502.38 120.215H453.818V123.116H502.38V120.215Z" fill="#F20201"/>
<path d="M502.347 104.175H453.785V107.076H502.347V104.175Z" fill="#F20201"/>
<path d="M502.38 137.034H453.818V139.934H502.38V137.034Z" fill="#F20201"/>
<path d="M502.38 88.3438H453.756V91.2443H502.38V88.3438Z" fill="#F20201"/>
<path d="M502.378 242.063H444.807V244.964H502.378V242.063Z" fill="#F20201"/>
<path d="M502.346 226.023H444.774V228.924H502.346V226.023Z" fill="#F20201"/>
<path d="M502.378 210.191H444.745V213.092H502.378V210.191Z" fill="#F20201"/>
<path d="M411.535 203.937C408.728 203.939 405.951 204.528 403.385 205.666C400.845 206.802 398.554 208.429 396.644 210.453C392.854 214.495 390.703 219.803 390.611 225.344C390.549 228.115 391.038 230.87 392.05 233.451C393.061 236.031 394.575 238.385 396.503 240.376C398.466 242.355 400.811 243.914 403.395 244.959C405.979 246.004 408.749 246.513 411.536 246.456C417.09 246.324 422.376 244.041 426.281 240.089C430.133 236.146 432.295 230.856 432.306 225.344C432.301 219.816 430.194 214.497 426.413 210.466C424.508 208.44 422.221 206.811 419.682 205.676C417.117 204.537 414.342 203.945 411.535 203.937ZM411.535 203.805C417.28 203.78 422.818 205.942 427.026 209.853C429.137 211.832 430.816 214.225 431.958 216.884C433.106 219.558 433.702 222.438 433.711 225.348C433.719 228.259 433.139 231.142 432.007 233.823C430.873 236.498 429.226 238.925 427.157 240.965C425.1 242.991 422.658 244.584 419.975 245.651C417.292 246.718 414.422 247.237 411.536 247.177C405.782 247.049 400.295 244.724 396.201 240.678C394.164 238.677 392.522 236.31 391.36 233.701C390.2 231.064 389.572 228.224 389.514 225.344C389.474 222.452 390.036 219.583 391.162 216.919C392.289 214.255 393.957 211.854 396.06 209.868C400.261 205.955 405.794 203.787 411.535 203.805V203.805Z" fill="black"/>
<path d="M411.535 236.955C408.425 236.976 405.415 235.853 403.079 233.8C401.897 232.737 400.96 231.431 400.332 229.971C399.704 228.511 399.4 226.932 399.442 225.343C399.498 223.767 399.868 222.217 400.531 220.785C401.193 219.38 402.104 218.108 403.221 217.029C405.451 214.842 408.415 213.562 411.536 213.437C413.118 213.376 414.697 213.637 416.176 214.205C417.655 214.773 419.003 215.636 420.137 216.741C421.291 217.857 422.209 219.194 422.835 220.672C423.461 222.15 423.784 223.739 423.783 225.344C423.781 226.941 423.444 228.521 422.793 229.98C422.143 231.439 421.193 232.745 420.006 233.814C417.664 235.865 414.649 236.983 411.535 236.955V236.955ZM411.535 236.823C413.026 236.807 414.497 236.476 415.851 235.852C417.205 235.228 418.412 234.324 419.393 233.201C421.315 231.035 422.377 228.24 422.378 225.344C422.37 222.464 421.254 219.697 419.261 217.618C417.22 215.524 414.457 214.287 411.536 214.159C410.053 214.1 408.574 214.351 407.194 214.897C405.814 215.444 404.563 216.273 403.523 217.331C402.515 218.399 401.731 219.658 401.219 221.035C400.706 222.411 400.475 223.876 400.538 225.344C400.628 228.252 401.734 231.037 403.664 233.215C404.647 234.337 405.857 235.239 407.214 235.861C408.57 236.483 410.043 236.81 411.535 236.823V236.823Z" fill="black"/>
<path d="M410.997 236.876C408.524 236.765 406.152 235.857 404.236 234.289L397.959 241.98C398.005 242.017 398.051 242.054 398.097 242.09C398.385 242.322 398.679 242.546 398.978 242.762L398.979 242.763C402.099 245.012 405.766 246.382 409.597 246.728C409.642 246.733 409.688 246.737 409.734 246.741C409.829 246.749 409.923 246.756 410.018 246.762C410.106 246.769 410.195 246.774 410.283 246.779C410.35 246.783 410.416 246.787 410.483 246.791L410.534 246.793L410.997 236.876Z" fill="#F20201"/>
<path d="M399.99 225.344C399.987 223.29 400.534 221.274 401.575 219.503L393.012 214.482C391.333 217.346 390.341 220.559 390.114 223.87L390.107 223.984C390.095 224.164 390.086 224.344 390.08 224.524C390.078 224.579 390.075 224.633 390.073 224.687C390.067 224.903 390.063 225.118 390.063 225.334L390.062 225.344L390.063 225.359C390.063 225.558 390.066 225.756 390.072 225.955C390.073 226.005 390.076 226.055 390.077 226.105C390.083 226.265 390.09 226.425 390.099 226.585C390.102 226.628 390.105 226.67 390.107 226.713C390.119 226.892 390.132 227.071 390.148 227.25L390.152 227.303C390.407 230.084 391.202 232.788 392.492 235.265L401.295 230.679C400.435 229.032 399.987 227.201 399.99 225.344Z" fill="#F20201"/>
<path d="M433.006 225.215C433.005 225.042 433.003 224.87 432.997 224.697C432.995 224.621 432.992 224.545 432.989 224.468C432.982 224.304 432.974 224.141 432.964 223.978C432.96 223.925 432.957 223.873 432.954 223.82C432.748 220.958 431.971 218.165 430.669 215.608C429.368 213.05 427.568 210.778 425.375 208.927L425.343 208.9C424.23 207.964 423.024 207.144 421.744 206.453L417.025 215.185C418.437 215.949 419.675 216.998 420.659 218.267C421.642 219.536 422.351 220.996 422.738 222.553C423.126 224.111 423.185 225.733 422.911 227.315C422.637 228.897 422.037 230.404 421.147 231.741L429.412 237.241C431.306 234.394 432.493 231.136 432.874 227.739L432.879 227.699C432.89 227.594 432.901 227.488 432.911 227.383C432.918 227.313 432.924 227.244 432.93 227.174C432.936 227.098 432.943 227.021 432.949 226.945C432.96 226.79 432.97 226.635 432.978 226.48C432.98 226.448 432.981 226.415 432.983 226.383C432.99 226.236 432.995 226.088 432.999 225.94L433.001 225.869C433.006 225.695 433.008 225.519 433.008 225.344C433.008 225.301 433.007 225.258 433.006 225.215Z" fill="#F20201"/>
<path d="M502.38 151.186H409.581V154.842H502.38V151.186Z" fill="#F20201"/>
<path d="M465.568 161.466H409.581V165.122H465.568V161.466Z" fill="#F20201"/>
<path d="M488.705 171.747H409.581V175.402H488.705V171.747Z" fill="#F20201"/>
<path d="M455.131 182.027H409.581V185.683H455.131V182.027Z" fill="#F20201"/>
<path d="M480.154 192.307H409.581V195.963H480.154V192.307Z" fill="#F20201"/>
<path d="M401.219 154.886C399.96 155.049 398.542 155.162 397.094 155.217C395.627 155.257 394.158 155.195 392.7 155.031L392.513 155.016L392.523 154.854C392.59 153.627 392.566 152.397 392.453 151.174L392.435 150.953L392.7 150.927C394.114 150.791 395.529 150.756 396.944 150.714C398.358 150.671 399.773 150.695 401.187 150.787L401.587 150.814L401.574 151.174C401.526 152.497 401.346 153.782 401.219 154.886ZM401.156 154.822C401.028 153.473 400.849 152.305 400.801 151.174L401.187 151.561C399.773 151.653 398.358 151.677 396.944 151.634C395.529 151.592 394.114 151.557 392.7 151.421L392.946 151.174C392.833 152.397 392.81 153.627 392.876 154.854L392.7 154.678C394.058 154.514 395.426 154.452 396.794 154.492C398.174 154.546 399.586 154.659 401.156 154.822V154.822Z" fill="black"/>
<path d="M401.219 165.166C399.96 165.329 398.542 165.442 397.094 165.496C395.627 165.537 394.158 165.475 392.7 165.311L392.513 165.296L392.523 165.134C392.59 163.907 392.566 162.677 392.453 161.454L392.435 161.233L392.7 161.207C394.114 161.071 395.529 161.036 396.944 160.994C398.358 160.951 399.773 160.975 401.187 161.067L401.587 161.094L401.574 161.454C401.526 162.777 401.346 164.062 401.219 165.166ZM401.156 165.102C401.028 163.753 400.849 162.584 400.801 161.454L401.187 161.841C399.773 161.933 398.358 161.957 396.944 161.914C395.529 161.872 394.114 161.837 392.7 161.701L392.946 161.454C392.833 162.677 392.81 163.907 392.876 165.134L392.7 164.958C394.058 164.794 395.426 164.732 396.794 164.772C398.174 164.826 399.586 164.939 401.156 165.102Z" fill="black"/>
<path d="M401.219 175.446C399.96 175.609 398.542 175.723 397.094 175.777C395.627 175.817 394.158 175.755 392.7 175.591L392.513 175.576L392.523 175.414C392.59 174.188 392.566 172.958 392.453 171.734L392.435 171.513L392.7 171.488C394.114 171.351 395.529 171.316 396.944 171.274C398.358 171.231 399.773 171.256 401.187 171.348L401.587 171.374L401.574 171.734C401.526 173.058 401.346 174.343 401.219 175.446ZM401.156 175.383C401.028 174.033 400.849 172.865 400.801 171.734L401.187 172.121C399.773 172.214 398.358 172.238 396.944 172.194C395.529 172.152 394.114 172.117 392.7 171.981L392.946 171.734C392.833 172.958 392.81 174.188 392.876 175.414L392.7 175.238C394.058 175.075 395.426 175.013 396.794 175.052C398.174 175.106 399.586 175.22 401.156 175.383Z" fill="black"/>
<path d="M401.219 185.727C399.96 185.89 398.542 186.003 397.094 186.057C395.627 186.098 394.158 186.036 392.7 185.872L392.513 185.856L392.523 185.695C392.59 184.468 392.566 183.238 392.453 182.015L392.435 181.794L392.7 181.768C394.114 181.632 395.529 181.596 396.944 181.555C398.358 181.511 399.773 181.536 401.187 181.628L401.587 181.654L401.574 182.015C401.526 183.338 401.346 184.623 401.219 185.727ZM401.156 185.663C401.028 184.313 400.849 183.145 400.801 182.015L401.187 182.401C399.773 182.494 398.358 182.518 396.944 182.474C395.529 182.433 394.114 182.398 392.7 182.261L392.946 182.015C392.833 183.238 392.81 184.468 392.876 185.695L392.7 185.518C394.058 185.355 395.426 185.293 396.794 185.333C398.174 185.387 399.586 185.5 401.156 185.663V185.663Z" fill="black"/>
<path d="M401.219 196.007C399.96 196.17 398.542 196.283 397.094 196.337C395.627 196.378 394.158 196.316 392.7 196.152L392.513 196.137L392.523 195.975C392.59 194.748 392.566 193.518 392.453 192.295L392.435 192.074L392.7 192.048C394.114 191.912 395.529 191.877 396.944 191.835C398.358 191.792 399.773 191.816 401.187 191.908L401.587 191.934L401.574 192.295C401.526 193.618 401.346 194.903 401.219 196.007ZM401.156 195.943C401.028 194.594 400.849 193.425 400.801 192.295L401.187 192.682C399.773 192.774 398.358 192.799 396.944 192.755C395.529 192.713 394.114 192.678 392.7 192.542L392.946 192.295C392.833 193.518 392.81 194.748 392.876 195.975L392.7 195.799C394.058 195.635 395.426 195.573 396.794 195.613C398.174 195.667 399.586 195.78 401.156 195.943V195.943Z" fill="black"/>
<path d="M502.412 165.154L479.359 165.385C471.644 165.446 463.927 165.548 456.157 165.549L444.517 165.58L432.862 165.548L409.581 165.399L409.302 165.397L409.304 165.122L409.334 161.466L409.336 161.219L409.581 161.22C417.314 161.247 425.047 161.349 432.781 161.314C440.514 161.306 448.247 161.174 455.98 161.107L467.58 161.062L479.18 161.109L490.78 161.198C494.646 161.227 498.513 161.281 502.38 161.359L502.49 161.361L502.487 161.466L502.412 165.154ZM502.348 165.09L502.272 161.466L502.38 161.574C498.513 161.647 494.646 161.7 490.78 161.735L479.18 161.823L467.58 161.871L455.98 161.826C448.247 161.759 440.514 161.627 432.781 161.619C425.047 161.584 417.314 161.686 409.581 161.713L409.828 161.466L409.858 165.122L409.581 164.845L432.699 164.696L444.244 164.664L455.804 164.695C463.5 164.696 471.249 164.798 479.001 164.859L502.348 165.09Z" fill="black"/>
<path d="M502.412 175.434L479.359 175.666C471.644 175.727 463.927 175.828 456.157 175.829L444.517 175.861L432.862 175.829L409.581 175.679L409.302 175.677L409.304 175.402L409.334 171.747L409.336 171.499L409.581 171.5C417.314 171.527 425.047 171.629 432.781 171.595C440.514 171.586 448.247 171.454 455.98 171.387L467.58 171.342L479.18 171.39L490.78 171.478C494.646 171.507 498.513 171.561 502.38 171.639L502.49 171.641L502.487 171.747L502.412 175.434ZM502.348 175.37L502.272 171.747L502.38 171.854C498.513 171.927 494.646 171.98 490.78 172.015L479.18 172.104L467.58 172.152L455.98 172.106C448.247 172.039 440.514 171.907 432.781 171.898C425.047 171.864 417.314 171.966 409.581 171.993L409.828 171.747L409.858 175.402L409.581 175.126L432.699 174.976L444.244 174.944L455.804 174.976C463.5 174.977 471.249 175.078 479.001 175.139L502.348 175.37Z" fill="black"/>
<path d="M502.412 185.714L479.359 185.946C471.644 186.007 463.927 186.108 456.157 186.109L444.517 186.141L432.862 186.109L409.581 185.959L409.302 185.957L409.304 185.683L409.334 182.027L409.336 181.779L409.581 181.78C417.314 181.807 425.047 181.909 432.781 181.875C440.514 181.866 448.247 181.735 455.98 181.668L467.58 181.622L479.18 181.67L490.78 181.758C494.646 181.788 498.513 181.841 502.38 181.919L502.49 181.921L502.487 182.027L502.412 185.714ZM502.348 185.651L502.272 182.027L502.38 182.135C498.513 182.207 494.646 182.261 490.78 182.296L479.18 182.384L467.58 182.432L455.98 182.386C448.247 182.319 440.514 182.188 432.781 182.179C425.047 182.145 417.314 182.246 409.581 182.274L409.828 182.027L409.858 185.683L409.581 185.406L432.699 185.256L444.244 185.224L455.804 185.256C463.5 185.257 471.249 185.358 479.001 185.419L502.348 185.651Z" fill="black"/>
<path d="M502.412 195.995L479.359 196.226C471.644 196.287 463.927 196.389 456.157 196.39L444.517 196.421L432.862 196.389L409.581 196.24L409.302 196.238L409.304 195.963L409.334 192.307L409.336 192.06L409.581 192.06C417.314 192.088 425.047 192.189 432.781 192.155C440.514 192.146 448.247 192.015 455.98 191.948L467.58 191.902L479.18 191.95L490.78 192.039C494.646 192.068 498.513 192.122 502.38 192.199L502.49 192.202L502.487 192.307L502.412 195.995ZM502.348 195.931L502.272 192.307L502.38 192.415C498.513 192.487 494.646 192.541 490.78 192.576L479.18 192.664L467.58 192.712L455.98 192.666C448.247 192.599 440.514 192.468 432.781 192.459C425.047 192.425 417.314 192.527 409.581 192.554L409.827 192.307L409.858 195.963L409.581 195.686L432.699 195.536L444.244 195.505L455.804 195.536C463.5 195.537 471.249 195.638 479.001 195.7L502.348 195.931Z" fill="black"/>
</svg>
